<svg width="567" height="390" viewBox="0 0 567 390" fill="none" xmlns="http://www.w3.org/2000/svg">
<g clip-path="url(#clip0_109_3542)">
<path d="M463.109 244.587H97.9279C95.4351 244.584 93.0451 243.612 91.2824 241.882C89.5197 240.153 88.5282 237.809 88.5254 235.364V14.4746C88.5274 12.6831 89.2538 10.9656 90.5452 9.69876C91.8365 8.43195 93.5874 7.71935 95.4137 7.71729H465.504C467.362 7.71936 469.143 8.44427 470.457 9.73298C471.771 11.0217 472.51 12.769 472.512 14.5915V235.364C472.509 237.809 471.517 240.153 469.755 241.882C467.992 243.612 465.602 244.584 463.109 244.587Z" fill="#F2F2F2"/>
<path d="M449.788 231.525H109.448C104.459 231.525 100.4 227.796 100.4 223.214V30.8609C100.4 27.4621 103.408 24.6969 107.105 24.6969H452.02C455.778 24.6969 458.836 27.5077 458.836 30.9624V223.214C458.836 227.796 454.777 231.525 449.788 231.525Z" fill="white"/>
<path d="M472.382 13.947H88.3945V9.25125C88.3981 6.79776 89.3937 4.44586 91.1628 2.71152C92.932 0.977177 95.3301 0.00202699 97.8313 0H462.945C465.446 0.00201518 467.845 0.977161 469.614 2.71151C471.383 4.44585 472.378 6.79776 472.382 9.25125V13.947Z" fill="#CCCCCC"/>
<path d="M105.544 9.38184C106.892 9.38184 107.985 8.30982 107.985 6.98743C107.985 5.66503 106.892 4.59302 105.544 4.59302C104.196 4.59302 103.104 5.66503 103.104 6.98743C103.104 8.30982 104.196 9.38184 105.544 9.38184Z" fill="white"/>
<path d="M114.808 9.38184C116.156 9.38184 117.249 8.30982 117.249 6.98743C117.249 5.66503 116.156 4.59302 114.808 4.59302C113.46 4.59302 112.367 5.66503 112.367 6.98743C112.367 8.30982 113.46 9.38184 114.808 9.38184Z" fill="white"/>
<path d="M124.074 9.38184C125.422 9.38184 126.515 8.30982 126.515 6.98743C126.515 5.66503 125.422 4.59302 124.074 4.59302C122.726 4.59302 121.633 5.66503 121.633 6.98743C121.633 8.30982 122.726 9.38184 124.074 9.38184Z" fill="white"/>
<path d="M412.328 199.264H148.58C145.936 199.261 143.401 198.23 141.532 196.396C139.662 194.562 138.61 192.076 138.607 189.482V64.7402C138.61 62.8005 139.396 60.9408 140.794 59.5692C142.192 58.1976 144.088 57.4261 146.066 57.4238H414.723C416.732 57.4261 418.658 58.21 420.078 59.6035C421.499 60.997 422.298 62.8863 422.3 64.857V189.482C422.297 192.076 421.246 194.562 419.376 196.396C417.507 198.23 414.972 199.261 412.328 199.264ZM146.066 58.5418C144.39 58.5437 142.784 59.1973 141.6 60.3594C140.415 61.5214 139.749 63.0969 139.747 64.7402V189.482C139.75 191.779 140.681 193.981 142.337 195.606C143.993 197.23 146.238 198.144 148.58 198.146H412.328C414.67 198.144 416.915 197.23 418.571 195.606C420.227 193.981 421.158 191.779 421.161 189.482V64.857C421.159 63.1827 420.48 61.5775 419.273 60.3936C418.066 59.2097 416.43 58.5437 414.723 58.5418H146.066Z" fill="#CCCCCC"/>
<path d="M157.698 189.482H403.211C405.629 189.482 407.948 188.54 409.658 186.862C411.368 185.185 412.328 182.91 412.328 180.538V76.2587C412.328 73.8867 411.368 71.6117 409.658 69.9344C407.948 68.2571 405.629 67.3148 403.211 67.3148H157.698C155.28 67.3148 152.96 68.2571 151.251 69.9344C149.541 71.6117 148.58 73.8867 148.58 76.2587V180.538C148.58 182.91 149.541 185.185 151.251 186.862C152.96 188.54 155.28 189.482 157.698 189.482Z" fill="#F2F2F2"/>
<path d="M185.574 97.6537C188.406 97.6537 190.703 95.4013 190.703 92.6227C190.703 89.8442 188.406 87.5918 185.574 87.5918C182.741 87.5918 180.445 89.8442 180.445 92.6227C180.445 95.4013 182.741 97.6537 185.574 97.6537Z" fill="#CCCCCC"/>
<path d="M185.574 116.66C188.406 116.66 190.703 114.407 190.703 111.629C190.703 108.85 188.406 106.598 185.574 106.598C182.741 106.598 180.445 108.85 180.445 111.629C180.445 114.407 182.741 116.66 185.574 116.66Z" fill="#CCCCCC"/>
<path d="M185.574 135.665C188.406 135.665 190.703 133.413 190.703 130.634C190.703 127.856 188.406 125.604 185.574 125.604C182.741 125.604 180.445 127.856 180.445 130.634C180.445 133.413 182.741 135.665 185.574 135.665Z" fill="#CCCCCC"/>
<path d="M185.574 154.671C188.406 154.671 190.703 152.419 190.703 149.64C190.703 146.862 188.406 144.609 185.574 144.609C182.741 144.609 180.445 146.862 180.445 149.64C180.445 152.419 182.741 154.671 185.574 154.671Z" fill="#CCCCCC"/>
<path d="M379.892 93.1817H211.216C211.065 93.1817 210.92 93.1228 210.813 93.018C210.707 92.9132 210.646 92.771 210.646 92.6227C210.646 92.4745 210.707 92.3323 210.813 92.2275C210.92 92.1226 211.065 92.0637 211.216 92.0637H379.892C380.043 92.0637 380.188 92.1226 380.295 92.2275C380.402 92.3323 380.462 92.4745 380.462 92.6227C380.462 92.771 380.402 92.9132 380.295 93.018C380.188 93.1228 380.043 93.1817 379.892 93.1817Z" fill="#CCCCCC"/>
<path d="M379.892 112.188H211.216C211.065 112.188 210.92 112.129 210.813 112.024C210.707 111.919 210.646 111.777 210.646 111.629C210.646 111.48 210.707 111.338 210.813 111.233C210.92 111.128 211.065 111.07 211.216 111.07H379.892C380.043 111.07 380.188 111.128 380.295 111.233C380.402 111.338 380.462 111.48 380.462 111.629C380.462 111.777 380.402 111.919 380.295 112.024C380.188 112.129 380.043 112.188 379.892 112.188Z" fill="#CCCCCC"/>
<path d="M379.892 131.193H211.216C211.065 131.193 210.92 131.135 210.813 131.03C210.707 130.925 210.646 130.783 210.646 130.634C210.646 130.486 210.707 130.344 210.813 130.239C210.92 130.134 211.065 130.075 211.216 130.075H379.892C380.043 130.075 380.188 130.134 380.295 130.239C380.402 130.344 380.462 130.486 380.462 130.634C380.462 130.783 380.402 130.925 380.295 131.03C380.188 131.135 380.043 131.193 379.892 131.193Z" fill="#CCCCCC"/>
<path d="M379.892 150.199H211.216C211.065 150.199 210.92 150.14 210.813 150.036C210.707 149.931 210.646 149.789 210.646 149.64C210.646 149.492 210.707 149.35 210.813 149.245C210.92 149.14 211.065 149.081 211.216 149.081H379.892C380.043 149.081 380.188 149.14 380.295 149.245C380.402 149.35 380.462 149.492 380.462 149.64C380.462 149.789 380.402 149.931 380.295 150.036C380.188 150.14 380.043 150.199 379.892 150.199Z" fill="#CCCCCC"/>
<path d="M243.129 169.205H226.603C225.848 169.204 225.124 168.909 224.589 168.385C224.055 167.861 223.755 167.151 223.754 166.41V151.317C223.755 150.576 224.055 149.866 224.589 149.342C225.124 148.818 225.848 148.523 226.603 148.522H243.129C243.884 148.523 244.608 148.818 245.143 149.342C245.677 149.866 245.977 150.576 245.978 151.317V166.41C245.977 167.151 245.677 167.861 245.143 168.385C244.608 168.909 243.884 169.204 243.129 169.205Z" fill="#228B22"/>
<path d="M280.168 169.205H263.642C262.887 169.204 262.163 168.909 261.628 168.385C261.094 167.861 260.794 167.151 260.793 166.41V132.311C260.794 131.57 261.094 130.86 261.628 130.336C262.163 129.812 262.887 129.517 263.642 129.516H280.168C280.923 129.517 281.647 129.812 282.182 130.336C282.716 130.86 283.016 131.57 283.017 132.311V166.41C283.016 167.151 282.716 167.861 282.182 168.385C281.647 168.909 280.923 169.204 280.168 169.205Z" fill="#228B22"/>
<path d="M317.779 169.205H301.254C300.498 169.204 299.774 168.909 299.24 168.385C298.706 167.861 298.405 167.151 298.404 166.41V113.305C298.405 112.564 298.706 111.854 299.24 111.33C299.774 110.806 300.498 110.511 301.254 110.51H317.779C318.535 110.511 319.259 110.806 319.793 111.33C320.327 111.854 320.628 112.564 320.628 113.305V166.41C320.628 167.151 320.327 167.861 319.793 168.385C319.259 168.909 318.535 169.204 317.779 169.205Z" fill="#228B22"/>
<path d="M356.527 169.205H340.002C339.246 169.204 338.522 168.909 337.988 168.385C337.454 167.861 337.153 167.151 337.152 166.41V94.8587C337.153 94.1177 337.454 93.4073 337.988 92.8833C338.522 92.3593 339.246 92.0646 340.002 92.0637H356.527C357.283 92.0646 358.007 92.3593 358.541 92.8833C359.075 93.4073 359.376 94.1177 359.376 94.8587V166.41C359.376 167.151 359.075 167.861 358.541 168.385C358.007 168.909 357.283 169.204 356.527 169.205Z" fill="#228B22"/>
<path d="M379.892 169.205H211.216C211.065 169.205 210.92 169.146 210.813 169.041C210.707 168.936 210.646 168.794 210.646 168.646C210.646 168.498 210.707 168.355 210.813 168.251C210.92 168.146 211.065 168.087 211.216 168.087H379.892C380.043 168.087 380.188 168.146 380.295 168.251C380.402 168.355 380.462 168.498 380.462 168.646C380.462 168.794 380.402 168.936 380.295 169.041C380.188 169.146 380.043 169.205 379.892 169.205Z" fill="#3F3D56"/>
<path d="M454 273.484C454.462 272.798 455.072 272.22 455.786 271.791C456.5 271.361 457.301 271.09 458.134 270.997C458.966 270.905 459.809 270.992 460.603 271.253C461.397 271.514 462.124 271.943 462.731 272.51L480.826 263.348L479.701 273.67L462.69 280.787C461.652 281.724 460.3 282.256 458.89 282.28C457.48 282.305 456.109 281.822 455.038 280.922C453.967 280.021 453.27 278.767 453.079 277.396C452.887 276.025 453.215 274.634 454 273.484Z" fill="#FFB8B8"/>
<path d="M469.569 277.334C469.158 277.018 468.856 276.586 468.701 276.097L467.262 271.536C467.107 271.042 467.111 270.513 467.273 270.021C467.434 269.529 467.746 269.098 468.166 268.785L482.833 257.918L498.717 229.011C499.382 228.171 500.21 227.467 501.153 226.94C502.095 226.413 503.134 226.074 504.211 225.941C505.287 225.808 506.38 225.884 507.426 226.166C508.472 226.447 509.452 226.928 510.309 227.58C511.166 228.233 511.883 229.045 512.42 229.97C512.957 230.894 513.303 231.914 513.438 232.97C513.574 234.025 513.496 235.097 513.209 236.124C512.922 237.15 512.432 238.111 511.767 238.951L502.73 257.661C499.988 263.34 495.236 267.849 489.359 270.348L472.171 277.661C471.841 277.802 471.484 277.872 471.123 277.869C470.763 277.865 470.408 277.787 470.08 277.639C469.898 277.558 469.727 277.455 469.569 277.334Z" fill="#3F3D56"/>
<path d="M512.166 216.947C519.896 216.947 526.162 210.8 526.162 203.218C526.162 195.635 519.896 189.488 512.166 189.488C504.436 189.488 498.17 195.635 498.17 203.218C498.17 210.8 504.436 216.947 512.166 216.947Z" fill="#FFB8B8"/>
<path d="M506.488 383.323L499.502 383.323L496.18 356.889L506.491 356.89L506.488 383.323Z" fill="#FFB8B8"/>
<path d="M494.513 381.365H507.986V389.686H486.029C486.029 388.593 486.249 387.511 486.675 386.502C487.101 385.492 487.726 384.575 488.514 383.802C489.302 383.029 490.237 382.416 491.266 381.998C492.295 381.58 493.399 381.365 494.513 381.365Z" fill="#2F2E41"/>
<path d="M529.283 383.325L522.297 383.324L518.975 356.89L529.286 356.891L529.283 383.325Z" fill="#FFB8B8"/>
<path d="M517.306 381.365H530.779V389.687H508.822C508.822 388.594 509.042 387.512 509.468 386.503C509.894 385.493 510.519 384.576 511.307 383.803C512.095 383.03 513.03 382.417 514.059 381.999C515.088 381.581 516.191 381.365 517.306 381.365Z" fill="#2F2E41"/>
<path d="M529.793 376.617L521.606 376.617C521.042 376.616 520.494 376.433 520.047 376.097C519.599 375.76 519.277 375.289 519.13 374.755L507.346 331.88C507.327 331.813 507.284 331.755 507.225 331.718C507.166 331.68 507.094 331.666 507.025 331.677C506.955 331.688 506.892 331.724 506.848 331.778C506.804 331.832 506.782 331.9 506.786 331.969L509.166 372.632C509.188 372.992 509.13 373.351 508.997 373.687C508.864 374.023 508.659 374.327 508.396 374.578C508.133 374.829 507.818 375.022 507.473 375.144C507.127 375.265 506.759 375.313 506.393 375.283L497.192 374.53C496.602 374.481 496.048 374.233 495.623 373.829C495.197 373.426 494.927 372.891 494.857 372.314L486.475 286.931L489.718 288.84L520.107 283.779L532.335 373.769C532.383 374.124 532.353 374.486 532.248 374.829C532.142 375.172 531.963 375.489 531.722 375.758C531.481 376.028 531.185 376.244 530.852 376.392C530.519 376.54 530.158 376.617 529.793 376.617Z" fill="#2F2E41"/>
<path d="M496.639 295.943C493.286 295.916 490.001 295.01 487.127 293.316C486.684 293.059 486.331 292.676 486.114 292.219C485.896 291.761 485.825 291.249 485.91 290.751C486.978 284.331 492.568 251.394 497.653 233.438C499.724 226.125 504.304 222.186 511.265 221.731C521.447 221.076 530.497 228.89 531.44 239.171C533.102 257.31 526.349 283.081 523.368 293.319C523.253 293.714 523.04 294.076 522.749 294.372C522.458 294.668 522.097 294.889 521.698 295.016C521.3 295.143 520.875 295.173 520.462 295.102C520.049 295.03 519.66 294.861 519.33 294.608L513.254 289.972C512.88 289.692 512.418 289.549 511.948 289.568C511.478 289.587 511.029 289.767 510.681 290.077C505.56 294.558 500.695 295.943 496.639 295.943Z" fill="#3F3D56"/>
<path opacity="0.2" d="M516.732 248.047L521.86 269.289L514.451 287.177L519.581 269.848L516.732 248.047Z" fill="black"/>
<path d="M520.153 214.508C521.398 214.531 522.635 214.311 523.793 213.862C524.302 213.669 524.831 213.511 525.34 213.318C529.831 211.616 532.79 206.924 532.896 202.202C533.003 197.48 530.51 192.897 526.808 189.876C523.107 186.856 518.312 185.305 513.511 184.946C508.34 184.56 502.516 185.846 499.626 190.07C498.857 191.195 498.319 192.559 498.775 193.917C498.911 194.327 499.155 194.694 499.482 194.983C500.772 196.109 502.059 195.262 503.375 195.187C505.183 195.085 506.807 196.52 507.391 198.203C507.974 199.885 507.717 201.736 507.246 203.452C506.887 204.484 506.66 205.556 506.572 206.644C506.534 207.189 506.638 207.735 506.875 208.229C507.113 208.724 507.475 209.151 507.927 209.469C509.057 210.139 510.541 209.752 511.672 209.083C512.802 208.414 513.779 207.484 515 206.992C516.222 206.5 517.863 206.609 518.573 207.7C518.799 208.097 518.952 208.531 519.025 208.98C519.662 211.828 519.516 211.66 520.153 214.508Z" fill="#2F2E41"/>
<path d="M498.46 364.147L410.82 334.207C409.316 333.691 408.082 332.611 407.389 331.204C406.695 329.798 406.599 328.178 407.121 326.702L429.896 262.553C430.281 261.472 431.087 260.585 432.138 260.087C433.189 259.588 434.398 259.519 435.501 259.895L526.104 290.847C527.225 291.231 528.144 292.036 528.661 293.085C529.178 294.133 529.249 295.34 528.86 296.44L506.111 360.519C505.585 361.994 504.485 363.205 503.05 363.885C501.616 364.565 499.965 364.659 498.46 364.147Z" fill="#E6E6E6"/>
<path d="M418.297 330.52L494.933 356.701C496.392 357.199 497.993 357.109 499.385 356.449C500.776 355.789 501.843 354.614 502.351 353.183L520.742 301.383C521.25 299.951 521.157 298.38 520.485 297.015C519.812 295.651 518.615 294.604 517.155 294.105L440.52 267.925C439.06 267.426 437.459 267.517 436.068 268.176C434.676 268.836 433.609 270.011 433.101 271.443L414.711 323.243C414.459 323.952 414.352 324.702 414.396 325.451C414.44 326.201 414.634 326.934 414.967 327.61C415.3 328.286 415.766 328.891 416.337 329.39C416.909 329.889 417.574 330.273 418.297 330.52Z" fill="white"/>
<path d="M437.542 294.126L433.747 292.829C433.541 292.759 433.372 292.611 433.277 292.419C433.182 292.226 433.169 292.005 433.241 291.803L434.563 288.08C434.634 287.878 434.785 287.712 434.981 287.619C435.177 287.526 435.403 287.513 435.609 287.583L439.405 288.88C439.61 288.95 439.779 289.098 439.874 289.291C439.969 289.483 439.982 289.705 439.911 289.907L438.589 293.63C438.517 293.831 438.366 293.997 438.17 294.09C437.974 294.183 437.748 294.196 437.542 294.126Z" fill="#008751"/>
<path d="M434.116 303.772L430.321 302.475C430.115 302.405 429.946 302.257 429.852 302.065C429.757 301.872 429.744 301.651 429.815 301.449L431.137 297.726C431.209 297.524 431.359 297.358 431.556 297.265C431.752 297.172 431.978 297.159 432.183 297.229L435.979 298.526C436.185 298.596 436.353 298.744 436.448 298.937C436.543 299.129 436.556 299.351 436.485 299.553L435.163 303.276C435.091 303.477 434.941 303.643 434.744 303.736C434.548 303.829 434.322 303.842 434.116 303.772Z" fill="#3F3D56"/>
<path d="M430.692 313.418L426.897 312.122C426.691 312.051 426.523 311.903 426.428 311.711C426.333 311.518 426.32 311.297 426.391 311.095L427.713 307.372C427.785 307.17 427.935 307.004 428.132 306.911C428.328 306.818 428.554 306.805 428.76 306.875L432.555 308.172C432.761 308.243 432.93 308.39 433.024 308.583C433.119 308.775 433.132 308.997 433.061 309.199L431.739 312.922C431.667 313.124 431.517 313.289 431.32 313.382C431.124 313.475 430.898 313.488 430.692 313.418Z" fill="#CCCCCC"/>
<path d="M463.046 300.751L444.759 294.504C444.657 294.469 444.562 294.415 444.481 294.345C444.401 294.274 444.335 294.189 444.287 294.094C444.24 293.998 444.213 293.895 444.206 293.789C444.2 293.683 444.215 293.577 444.251 293.477C444.286 293.376 444.342 293.284 444.414 293.205C444.486 293.126 444.573 293.061 444.67 293.015C444.768 292.969 444.873 292.942 444.981 292.937C445.089 292.931 445.198 292.946 445.3 292.981L463.586 299.228C463.688 299.263 463.783 299.317 463.864 299.387C463.944 299.458 464.01 299.543 464.058 299.638C464.105 299.734 464.132 299.837 464.139 299.943C464.145 300.049 464.13 300.155 464.094 300.256C464.059 300.356 464.003 300.448 463.931 300.527C463.859 300.606 463.772 300.671 463.675 300.717C463.577 300.763 463.472 300.79 463.364 300.795C463.256 300.801 463.148 300.786 463.046 300.751Z" fill="#CCCCCC"/>
<path d="M459.62 310.397L441.333 304.15C441.127 304.08 440.958 303.932 440.863 303.739C440.768 303.547 440.755 303.325 440.827 303.123C440.899 302.921 441.049 302.755 441.246 302.662C441.442 302.569 441.668 302.557 441.874 302.627L460.16 308.874C460.263 308.909 460.357 308.963 460.438 309.033C460.518 309.104 460.584 309.189 460.631 309.284C460.679 309.38 460.706 309.483 460.712 309.589C460.719 309.695 460.704 309.801 460.668 309.901C460.632 310.002 460.577 310.094 460.505 310.173C460.433 310.252 460.346 310.317 460.249 310.363C460.151 310.409 460.046 310.435 459.938 310.441C459.83 310.447 459.722 310.432 459.62 310.397Z" fill="#CCCCCC"/>
<path d="M456.196 320.043L437.909 313.796C437.703 313.726 437.534 313.578 437.439 313.386C437.344 313.193 437.331 312.971 437.403 312.769C437.475 312.567 437.625 312.402 437.822 312.309C438.018 312.216 438.244 312.203 438.45 312.273L456.737 318.52C456.942 318.591 457.111 318.738 457.206 318.931C457.301 319.123 457.314 319.345 457.242 319.547C457.171 319.749 457.02 319.915 456.824 320.008C456.628 320.101 456.402 320.114 456.196 320.043Z" fill="#CCCCCC"/>
<path d="M504.859 325.27C504.993 324.956 505.118 324.638 505.233 324.313C506.737 320.079 506.464 315.433 504.475 311.397C502.486 307.361 498.944 304.265 494.628 302.791L488.617 319.721L504.859 325.27Z" fill="#228B22"/>
<path d="M486.869 320.751L492.88 303.82C489.703 302.735 486.272 302.586 483.01 303.39C479.748 304.195 476.798 305.918 474.522 308.348C472.247 310.778 470.746 313.808 470.205 317.064C469.664 320.321 470.106 323.662 471.478 326.675C472.849 329.687 475.089 332.241 477.922 334.019C480.755 335.798 484.057 336.725 487.42 336.685C490.783 336.645 494.061 335.641 496.85 333.795C499.638 331.95 501.815 329.344 503.111 326.3L486.869 320.751Z" fill="#3F3D56"/>
<path d="M508.388 296.465C508.32 295.645 508.436 294.822 508.728 294.051C509.019 293.281 509.479 292.583 510.076 292.006C510.673 291.429 511.391 290.987 512.18 290.712C512.969 290.437 513.811 290.334 514.645 290.413L523.12 272.25L528.728 281.052L519.82 296.951C519.593 298.316 518.863 299.553 517.769 300.426C516.675 301.299 515.293 301.748 513.884 301.689C512.475 301.629 511.137 301.064 510.124 300.101C509.111 299.138 508.493 297.844 508.388 296.465Z" fill="#FFB8B8"/>
<path d="M523.062 290.068C522.54 290.068 522.03 289.912 521.601 289.621L517.599 286.903C517.167 286.608 516.837 286.189 516.655 285.704C516.472 285.219 516.446 284.691 516.58 284.191L521.284 266.761L515.598 234.399C515.591 233.334 515.799 232.279 516.208 231.292C516.618 230.306 517.222 229.409 517.986 228.652C518.749 227.895 519.657 227.293 520.658 226.88C521.659 226.467 522.733 226.252 523.819 226.247C524.904 226.242 525.98 226.447 526.985 226.85C527.99 227.253 528.904 227.846 529.675 228.596C530.446 229.346 531.059 230.238 531.478 231.22C531.897 232.202 532.115 233.256 532.119 234.321L536.779 254.514C538.194 260.642 537.292 267.066 534.24 272.591L525.316 288.751C525.144 289.061 524.907 289.333 524.621 289.548C524.336 289.763 524.007 289.917 523.657 289.999C523.462 290.045 523.262 290.068 523.062 290.068Z" fill="#3F3D56"/>
<path d="M566.431 390H458.16C458.009 390 457.864 389.941 457.757 389.836C457.65 389.732 457.59 389.589 457.59 389.441C457.59 389.293 457.65 389.151 457.757 389.046C457.864 388.941 458.009 388.882 458.16 388.882H566.431C566.582 388.882 566.727 388.941 566.834 389.046C566.941 389.151 567.001 389.293 567.001 389.441C567.001 389.589 566.941 389.732 566.834 389.836C566.727 389.941 566.582 390 566.431 390Z" fill="#CCCCCC"/>
<path d="M279.534 383.045L286.521 383.045L289.844 356.611H279.533L279.534 383.045Z" fill="#A0616A"/>
<path d="M277.752 380.808L291.51 380.807C292.662 380.807 293.802 381.03 294.866 381.462C295.93 381.894 296.897 382.527 297.711 383.326C298.525 384.125 299.171 385.073 299.611 386.116C300.052 387.16 300.279 388.278 300.279 389.408V389.687L277.752 389.688L277.752 380.808Z" fill="#2F2E41"/>
<path d="M251.612 383.045L258.599 383.045L261.922 356.611H251.611L251.612 383.045Z" fill="#A0616A"/>
<path d="M249.83 380.808L263.588 380.807C264.74 380.807 265.881 381.03 266.944 381.462C268.008 381.894 268.975 382.527 269.789 383.326C270.603 384.125 271.249 385.073 271.69 386.116C272.13 387.16 272.357 388.278 272.357 389.408V389.687L249.83 389.688L249.83 380.808Z" fill="#2F2E41"/>
<path d="M280.93 200.041C288.66 200.041 294.926 193.894 294.926 186.311C294.926 178.729 288.66 172.582 280.93 172.582C273.2 172.582 266.934 178.729 266.934 186.311C266.934 193.894 273.2 200.041 280.93 200.041Z" fill="#A0616A"/>
<path d="M290.342 377.34H277.377C277.038 377.34 276.702 377.274 276.389 377.145C276.076 377.017 275.792 376.829 275.553 376.592C275.315 376.355 275.126 376.074 274.999 375.766C274.872 375.457 274.809 375.127 274.813 374.794L275.566 314.405C275.569 314.19 275.488 313.983 275.34 313.826C275.191 313.668 274.987 313.572 274.769 313.558C274.551 313.543 274.335 313.612 274.167 313.748C273.998 313.885 273.89 314.08 273.863 314.293L266.318 375.128C266.242 375.738 265.941 376.3 265.472 376.707C265.003 377.114 264.399 377.339 263.772 377.34H250.683C250.33 377.34 249.98 377.268 249.656 377.129C249.332 376.99 249.041 376.787 248.801 376.533C248.561 376.278 248.377 375.977 248.261 375.65C248.145 375.322 248.099 374.974 248.127 374.628L256.77 266.141L257.005 266.116L298.393 261.732L292.903 374.944C292.873 375.59 292.589 376.199 292.112 376.646C291.635 377.092 291.001 377.341 290.342 377.34Z" fill="#2F2E41"/>
<path d="M257.274 272.801C256.609 272.8 255.97 272.545 255.494 272.09C255.017 271.636 254.739 271.017 254.719 270.365C254.493 263.505 254.105 239.77 258.606 222.344C259.834 217.584 262.591 213.338 266.47 210.233C270.348 207.129 275.142 205.331 280.142 205.106C285.064 204.842 289.945 206.105 294.094 208.716C298.243 211.328 301.448 215.154 303.254 219.653C310.819 238.492 317.967 261.715 309.056 265.357C297.377 270.13 266.589 272.258 257.431 272.796C257.378 272.8 257.326 272.801 257.274 272.801Z" fill="#3F3D56"/>
<path d="M310.765 172.435C310.985 172.656 311.222 172.861 311.475 173.046L310.006 200.731L303.895 203.8L307.411 213.452L318.768 209.05C319.685 208.695 320.46 208.057 320.977 207.232C321.493 206.408 321.723 205.441 321.632 204.478L318.657 173.074C319.63 172.361 320.36 171.375 320.748 170.245C321.136 169.116 321.164 167.898 320.829 166.753C320.494 165.607 319.812 164.589 318.873 163.833C317.933 163.078 316.782 162.621 315.571 162.523C314.361 162.425 313.148 162.69 312.096 163.285C311.043 163.879 310.199 164.774 309.678 165.85C309.156 166.926 308.98 168.132 309.175 169.309C309.369 170.485 309.924 171.575 310.765 172.435Z" fill="#A0616A"/>
<path d="M310.122 201.761L314.421 213.745C314.543 214.086 314.589 214.449 314.556 214.809C314.522 215.169 314.41 215.518 314.227 215.832C314.044 216.145 313.794 216.416 313.494 216.627C313.194 216.837 312.852 216.981 312.49 217.05L299.813 219.458C298.031 220.062 296.078 219.949 294.381 219.142C292.684 218.335 291.383 216.901 290.762 215.155C290.141 213.408 290.252 211.492 291.07 209.825C291.888 208.159 293.346 206.878 295.125 206.265L306.507 200.371C306.833 200.203 307.192 200.105 307.56 200.085C307.928 200.065 308.296 200.122 308.639 200.254C308.982 200.386 309.292 200.589 309.548 200.849C309.804 201.109 310 201.42 310.122 201.761Z" fill="#3F3D56"/>
<path d="M250.14 172.435C249.92 172.656 249.683 172.861 249.43 173.046L250.9 200.731L257.011 203.8L253.494 213.452L242.137 209.05C241.22 208.695 240.445 208.057 239.928 207.232C239.412 206.408 239.182 205.441 239.273 204.478L242.249 173.074C241.275 172.361 240.546 171.375 240.158 170.245C239.77 169.116 239.741 167.898 240.076 166.753C240.411 165.607 241.093 164.589 242.033 163.833C242.972 163.078 244.123 162.621 245.334 162.523C246.545 162.425 247.757 162.69 248.81 163.285C249.862 163.879 250.706 164.774 251.228 165.85C251.749 166.926 251.925 168.132 251.731 169.309C251.536 170.485 250.982 171.575 250.14 172.435Z" fill="#A0616A"/>
<path d="M252.268 200.254C252.611 200.122 252.979 200.064 253.347 200.084C253.715 200.105 254.074 200.203 254.4 200.371L265.782 206.265C267.56 206.878 269.018 208.159 269.836 209.825C270.654 211.492 270.765 213.408 270.144 215.155C269.524 216.901 268.222 218.335 266.525 219.142C264.829 219.949 262.875 220.062 261.093 219.458L248.416 217.05C248.055 216.981 247.712 216.837 247.413 216.627C247.113 216.416 246.863 216.145 246.68 215.832C246.496 215.518 246.384 215.169 246.35 214.809C246.317 214.449 246.363 214.086 246.485 213.746L250.784 201.761C250.906 201.42 251.102 201.109 251.358 200.849C251.614 200.589 251.924 200.386 252.268 200.254Z" fill="#3F3D56"/>
<path d="M286.364 188.652C286.291 186.9 286.739 185.166 287.654 183.66C288.569 182.154 289.911 180.943 291.516 180.173C295.771 178.019 298.443 173.423 297.272 169.227C295.773 163.855 288.321 160.372 282.282 162.22C280.648 162.789 279.072 163.507 277.575 164.366L273.63 166.44C271.944 167.268 270.319 168.209 268.766 169.256C266.44 170.938 264.617 173.201 263.488 175.81C262.358 178.419 261.963 181.277 262.344 184.087C263.121 189.547 266.767 194.555 271.757 197.984C273.665 199.383 275.869 200.344 278.207 200.796C280.599 201.183 283.261 200.743 285.01 199.284C287.744 197.004 287.461 193.185 286.577 189.996C286.46 189.556 286.389 189.106 286.364 188.652Z" fill="#2F2E41"/>
<path d="M333.931 390H225.66C225.509 390 225.364 389.941 225.257 389.836C225.15 389.732 225.09 389.589 225.09 389.441C225.09 389.293 225.15 389.151 225.257 389.046C225.364 388.941 225.509 388.882 225.66 388.882H333.931C334.082 388.882 334.227 388.941 334.334 389.046C334.441 389.151 334.501 389.293 334.501 389.441C334.501 389.589 334.441 389.732 334.334 389.836C334.227 389.941 334.082 390 333.931 390Z" fill="#CCCCCC"/>
<path d="M157.227 288.024L67.8879 323.977C66.3536 324.592 64.633 324.586 63.1037 323.958C61.5744 323.331 60.3613 322.134 59.7304 320.631L32.3822 255.238C31.9225 254.135 31.9275 252.899 32.396 251.799C32.8645 250.7 33.7583 249.829 34.8813 249.375L127.241 212.207C128.384 211.748 129.667 211.753 130.806 212.221C131.946 212.688 132.85 213.58 133.321 214.701L160.639 280.022C161.266 281.527 161.259 283.215 160.62 284.715C159.98 286.215 158.76 287.405 157.227 288.024Z" fill="#E6E6E6"/>
<path d="M71.1232 316.045L149.244 284.607C150.732 284.008 151.916 282.854 152.537 281.399C153.157 279.944 153.163 278.307 152.552 276.847L130.469 224.043C130.167 223.32 129.722 222.663 129.161 222.109C128.6 221.555 127.933 221.115 127.199 220.813C126.464 220.512 125.676 220.356 124.88 220.353C124.084 220.35 123.295 220.502 122.559 220.798L44.4375 252.236C43.7009 252.533 43.031 252.969 42.4661 253.519C41.9012 254.07 41.4524 254.724 41.1452 255.444C40.838 256.165 40.6785 256.938 40.6758 257.719C40.6731 258.5 40.8273 259.274 41.1295 259.996L63.2129 312.8C63.5151 313.523 63.9594 314.18 64.5205 314.734C65.0815 315.288 65.7484 315.729 66.4829 316.03C67.2175 316.331 68.0053 316.488 68.8015 316.49C69.5977 316.493 70.3866 316.342 71.1232 316.045Z" fill="white"/>
<path d="M130.037 238.444L128.889 238.906L128.967 239.094L130.116 238.631L130.037 238.444Z" fill="#E6E6E6"/>
<path d="M126.648 240.027L124.328 240.961L124.249 240.773L126.57 239.84L126.648 240.027ZM122.007 241.895L119.687 242.829L119.609 242.641L121.929 241.707L122.007 241.895ZM117.367 243.762L115.047 244.696L114.968 244.508L117.288 243.575L117.367 243.762ZM112.726 245.63L110.406 246.564L110.328 246.376L112.648 245.442L112.726 245.63ZM108.086 247.497L105.766 248.431L105.687 248.243L108.007 247.31L108.086 247.497ZM103.445 249.365L101.125 250.299L101.046 250.111L103.367 249.177L103.445 249.365ZM98.8046 251.232L96.4844 252.166L96.4058 251.978L98.7261 251.045L98.8046 251.232ZM94.1641 253.1L91.8438 254.034L91.7653 253.846L94.0855 252.912L94.1641 253.1ZM89.5235 254.968L87.2032 255.901L87.1247 255.714L89.445 254.78L89.5235 254.968ZM84.8829 256.835L82.5626 257.769L82.4841 257.581L84.8044 256.647L84.8829 256.835ZM80.2423 258.703L77.9221 259.636L77.8435 259.449L80.1638 258.515L80.2423 258.703ZM75.6018 260.57L73.2815 261.504L73.203 261.316L75.5232 260.382L75.6018 260.57ZM70.9612 262.438L68.6409 263.371L68.5624 263.184L70.8827 262.25L70.9612 262.438ZM66.3206 264.305L64.0003 265.239L63.9218 265.051L66.2421 264.117L66.3206 264.305ZM61.68 266.173L59.3598 267.106L59.2812 266.919L61.6015 265.985L61.68 266.173ZM57.0395 268.04L54.7192 268.974L54.6406 268.786L56.9609 267.852L57.0395 268.04Z" fill="#E6E6E6"/>
<path d="M52.3204 269.72L51.1719 270.182L51.2504 270.37L52.3989 269.908L52.3204 269.72Z" fill="#E6E6E6"/>
<path d="M99.631 271.083L98.4824 271.545L98.561 271.733L99.7095 271.271L99.631 271.083Z" fill="#E6E6E6"/>
<path d="M96.2741 272.653L93.9883 273.573L93.9097 273.385L96.1956 272.465L96.2741 272.653ZM91.7024 274.493L89.4166 275.413L89.3381 275.225L91.6239 274.305L91.7024 274.493ZM87.1308 276.332L84.845 277.252L84.7664 277.065L87.0523 276.145L87.1308 276.332ZM82.5592 278.172L80.2733 279.092L80.1948 278.904L82.4806 277.984L82.5592 278.172ZM77.9875 280.012L75.7017 280.932L75.6231 280.744L77.909 279.824L77.9875 280.012ZM73.4158 281.852L71.13 282.772L71.0515 282.584L73.3373 281.664L73.4158 281.852ZM68.8442 283.692L66.5584 284.611L66.4798 284.424L68.7657 283.504L68.8442 283.692ZM64.2726 285.531L61.9867 286.451L61.9082 286.263L64.194 285.344L64.2726 285.531Z" fill="#E6E6E6"/>
<path d="M59.6231 287.183L58.4746 287.646L58.5531 287.833L59.7017 287.371L59.6231 287.183Z" fill="#E6E6E6"/>
<path d="M80.6896 288.358L79.541 288.82L79.6195 289.008L80.7681 288.546L80.6896 288.358Z" fill="#E6E6E6"/>
<path d="M77.2671 289.955L74.9153 290.901L74.8368 290.713L77.1886 289.767L77.2671 289.955ZM72.5635 291.847L70.2118 292.794L70.1332 292.606L72.485 291.66L72.5635 291.847ZM67.86 293.74L65.5082 294.687L65.4297 294.499L67.7815 293.553L67.86 293.74Z" fill="#E6E6E6"/>
<path d="M63.0782 295.446L61.9297 295.908L62.0082 296.095L63.1568 295.633L63.0782 295.446Z" fill="#E6E6E6"/>
<path d="M86.586 302.458L85.4375 302.92L85.516 303.108L86.6646 302.646L86.586 302.458Z" fill="#E6E6E6"/>
<path d="M83.1636 304.054L80.8118 305.001L80.7333 304.813L83.085 303.866L83.1636 304.054ZM78.46 305.947L76.1082 306.894L76.0297 306.706L78.3815 305.759L78.46 305.947ZM73.7565 307.84L71.4047 308.786L71.3262 308.599L73.6779 307.652L73.7565 307.84Z" fill="#E6E6E6"/>
<path d="M68.9747 309.545L67.8262 310.007L67.9047 310.195L69.0532 309.733L68.9747 309.545Z" fill="#E6E6E6"/>
<path d="M74.4414 307.733L140.644 281.091C142.246 280.444 143.521 279.2 144.19 277.632C144.858 276.064 144.865 274.3 144.209 272.727L130.833 240.744L130.704 240.8L114.458 278.905L102.409 273.964C102.187 273.872 101.946 273.832 101.705 273.846C101.464 273.861 101.23 273.93 101.021 274.049C100.707 274.234 100.464 274.515 100.33 274.85L91.816 294.818L83.0063 291.205C82.8162 291.127 82.6123 291.087 82.4062 291.086C82.2001 291.085 81.9959 291.125 81.8053 291.201C81.6146 291.278 81.4412 291.391 81.295 291.533C81.1489 291.676 81.0327 291.845 80.9533 292.032C80.8969 292.167 75.4649 305.241 74.4414 307.733Z" fill="#228B22"/>
<path d="M74.2377 308.034L74.0469 307.956L80.8592 291.977C81.0395 291.555 81.3831 291.22 81.8145 291.047C82.2459 290.873 82.7298 290.875 83.1602 291.051L91.796 294.593L100.262 274.735C100.442 274.313 100.786 273.979 101.217 273.805C101.648 273.632 102.132 273.633 102.563 273.809L114.438 278.68L130.768 240.376L130.958 240.455L114.549 278.946L102.483 273.996C102.295 273.919 102.093 273.879 101.89 273.878C101.686 273.878 101.484 273.916 101.295 273.992C101.107 274.068 100.935 274.18 100.791 274.321C100.646 274.461 100.531 274.629 100.453 274.813L91.907 294.859L83.0804 291.238C82.7006 291.083 82.2736 291.081 81.893 291.235C81.5124 291.388 81.2092 291.683 81.05 292.055L74.2377 308.034Z" fill="#3F3D56"/>
<path d="M80.7296 289.873C81.5295 289.873 82.1779 289.237 82.1779 288.452C82.1779 287.667 81.5295 287.031 80.7296 287.031C79.9297 287.031 79.2812 287.667 79.2812 288.452C79.2812 289.237 79.9297 289.873 80.7296 289.873Z" fill="#3F3D56"/>
<path d="M99.669 272.598C100.469 272.598 101.117 271.962 101.117 271.177C101.117 270.392 100.469 269.756 99.669 269.756C98.8692 269.756 98.2207 270.392 98.2207 271.177C98.2207 271.962 98.8692 272.598 99.669 272.598Z" fill="#3F3D56"/>
<path d="M129.163 239.908C129.963 239.908 130.612 239.272 130.612 238.487C130.612 237.703 129.963 237.067 129.163 237.067C128.363 237.067 127.715 237.703 127.715 238.487C127.715 239.272 128.363 239.908 129.163 239.908Z" fill="#3F3D56"/>
<path d="M48.0952 286.84C48.8481 286.472 49.5097 285.947 50.0334 285.302C50.5571 284.656 50.9302 283.906 51.1263 283.104C51.3224 282.302 51.3368 281.467 51.1686 280.659C51.0003 279.85 50.6534 279.088 50.1523 278.426L54.4538 237.169H45.1577L41.7392 277.454C40.6603 278.354 39.9553 279.61 39.7578 280.985C39.5602 282.361 39.8838 283.759 40.6673 284.916C41.4507 286.073 42.6396 286.908 44.0086 287.263C45.3776 287.617 46.8317 287.467 48.0952 286.84Z" fill="#FFB8B8"/>
<path d="M56.6307 214.401C63.8944 214.401 69.7828 208.625 69.7828 201.5C69.7828 194.374 63.8944 188.598 56.6307 188.598C49.3669 188.598 43.4785 194.374 43.4785 201.5C43.4785 208.625 49.3669 214.401 56.6307 214.401Z" fill="#FFB8B8"/>
<path d="M59.1072 261.196C58.5807 261.195 58.0688 261.026 57.6501 260.713C57.2313 260.4 56.9288 259.961 56.789 259.463C55.7353 255.707 52.9938 249.358 48.6408 240.589C47.6586 238.607 47.1147 236.444 47.0448 234.241C46.9749 232.038 47.3806 229.846 48.2352 227.808C49.0898 225.77 50.374 223.932 52.0036 222.415C53.6333 220.898 55.5715 219.736 57.6911 219.005C59.6997 218.309 61.8302 218.016 63.9565 218.142C66.0828 218.268 68.1618 218.811 70.0703 219.739C71.9788 220.668 73.6782 221.962 75.0679 223.545C76.4576 225.129 77.5094 226.97 78.1611 228.96C81.5351 239.336 81.3722 250.451 81.1455 254.748C81.1174 255.266 80.9171 255.76 80.5753 256.155C80.2335 256.55 79.769 256.824 79.2531 256.936L59.624 261.141C59.4543 261.177 59.281 261.196 59.1072 261.196Z" fill="#FF6584"/>
<path d="M78.1164 383.708H84.681L87.8044 358.868L78.1152 358.868L78.1164 383.708Z" fill="#FFB8B8"/>
<path d="M97.3418 389.687L76.709 389.688L76.7087 381.868L89.3697 381.868C90.4165 381.868 91.4532 382.07 92.4204 382.463C93.3876 382.856 94.2664 383.432 95.0067 384.158C95.7469 384.884 96.3342 385.746 96.7348 386.695C97.1355 387.643 97.3417 388.66 97.3418 389.687Z" fill="#2F2E41"/>
<path d="M12.4688 375.362L18.2219 378.465L33.1588 358.174L24.6687 353.595L12.4688 375.362Z" fill="#FFB8B8"/>
<path d="M26.3809 389.688L8.30039 379.937L12.1409 373.085L23.2358 379.068C25.0885 380.067 26.4607 381.748 27.0505 383.739C27.6403 385.731 27.3994 387.871 26.3809 389.688Z" fill="#2F2E41"/>
<path d="M77.8084 369.921C77.2234 369.92 76.6585 369.711 76.2192 369.332C75.78 368.953 75.4962 368.43 75.421 367.861L67.2107 305.799C67.1745 305.525 67.0507 305.268 66.8571 305.067C66.6634 304.866 66.4099 304.729 66.1327 304.678C65.8554 304.626 65.5686 304.662 65.3133 304.78C65.0579 304.897 64.8471 305.091 64.7108 305.334L30.4938 366.231C30.2115 366.728 29.7566 367.109 29.2119 367.306C28.6673 367.502 28.0689 367.499 27.5258 367.299L20.0675 364.512C19.7675 364.4 19.4933 364.23 19.2612 364.013C19.029 363.795 18.8435 363.534 18.7155 363.246C18.5875 362.957 18.5196 362.646 18.5158 362.331C18.512 362.016 18.5724 361.704 18.6934 361.412L42.3964 304.294C42.4564 304.148 42.4971 303.996 42.5175 303.841C45.7279 279.466 53.8964 267.07 56.3233 263.852C56.5006 263.615 56.6172 263.34 56.6635 263.05C56.7097 262.76 56.6841 262.464 56.5889 262.185L56.2552 261.203C56.122 260.814 56.0946 260.397 56.176 259.994C56.2573 259.59 56.4445 259.215 56.7189 258.904C65.4642 249.133 80.7068 254.465 80.8597 254.52L80.9361 254.548L80.984 254.612C98.0754 277.605 91.7561 352.286 90.3158 367.024C90.262 367.577 90.0103 368.095 89.6052 368.484C89.2001 368.873 88.6676 369.109 88.1021 369.151L77.9955 369.914C77.9327 369.919 77.8703 369.921 77.8084 369.921Z" fill="#2F2E41"/>
<path d="M107.761 216.486C107.696 216.77 107.653 217.058 107.633 217.348L84.63 230.365L79.0388 227.208L73.0781 234.862L82.4226 241.396C83.1775 241.924 84.0866 242.197 85.0133 242.175C85.9401 242.153 86.8345 241.836 87.5623 241.273L111.283 222.916C112.353 223.305 113.519 223.365 114.625 223.088C115.731 222.811 116.725 222.21 117.474 221.365C118.223 220.521 118.693 219.472 118.82 218.359C118.947 217.247 118.726 216.122 118.186 215.136C117.646 214.149 116.812 213.348 115.796 212.837C114.78 212.327 113.63 212.132 112.498 212.279C111.366 212.425 110.307 212.906 109.461 213.658C108.615 214.409 108.022 215.396 107.761 216.486Z" fill="#FFB8B8"/>
<path d="M83.8615 230.982L76.4269 240.434C76.2154 240.703 75.9472 240.924 75.6408 241.082C75.3343 241.24 74.9967 241.332 74.6509 241.35C74.3051 241.369 73.9594 241.314 73.6371 241.19C73.3149 241.065 73.0237 240.874 72.7835 240.63L64.367 232.056C62.9705 230.987 62.0633 229.418 61.8443 227.693C61.6253 225.968 62.1124 224.229 63.1988 222.856C64.2852 221.483 65.8822 220.589 67.6397 220.37C69.3972 220.15 71.1718 220.623 72.5743 221.685L83.1304 227.475C83.4325 227.641 83.6947 227.869 83.8991 228.143C84.1034 228.417 84.2451 228.731 84.3145 229.064C84.3839 229.397 84.3793 229.741 84.3012 230.071C84.223 230.402 84.073 230.713 83.8615 230.982Z" fill="#FF6584"/>
<path d="M55.0461 247.403L43.0694 245.282C42.7286 245.222 42.4051 245.09 42.1209 244.896C41.8367 244.702 41.5985 244.45 41.4225 244.157C41.2464 243.865 41.1367 243.539 41.1009 243.201C41.065 242.863 41.1038 242.521 41.2145 242.2L45.0971 230.923C45.4218 229.214 46.4238 227.702 47.8837 226.717C49.3435 225.732 51.1419 225.355 52.8845 225.669C54.6272 225.983 56.1719 226.962 57.1798 228.391C58.1878 229.821 58.5768 231.584 58.2615 233.294L57.8827 245.152C57.8717 245.492 57.7863 245.825 57.6323 246.129C57.4782 246.433 57.2591 246.701 56.9899 246.915C56.7207 247.129 56.4077 247.283 56.0723 247.367C55.7368 247.451 55.3868 247.464 55.0461 247.403Z" fill="#FF6584"/>
<path d="M58.7131 198.532C62.0934 200.802 66.532 203.134 69.9845 200.718C71.0645 199.911 71.849 198.783 72.2207 197.502C72.5924 196.221 72.5313 194.857 72.0465 193.613C70.3933 188.976 65.8512 186.934 61.5078 185.369C55.8614 183.334 49.7132 181.716 43.8842 183.173C38.0552 184.63 32.9037 190.166 33.956 195.976C34.8022 200.648 39.2948 204.535 38.657 209.239C38.0151 213.973 32.5879 216.465 27.7965 217.311C23.0051 218.157 17.6434 218.429 14.2 221.805C9.80736 226.112 10.9043 233.809 15.0376 238.357C19.1709 242.904 25.4083 244.965 31.4524 246.366C39.4604 248.222 48.1216 249.198 55.7272 246.117C63.3328 243.036 69.2513 234.742 67.0481 226.965C66.1175 223.68 63.9252 220.904 61.8064 218.201C59.6877 215.498 57.5423 212.672 56.7341 209.356C56.0606 206.592 56.5591 203.384 58.4272 201.311C58.767 200.948 58.9808 200.489 59.038 200C59.0952 199.51 58.9928 199.015 58.7455 198.587L58.7131 198.532Z" fill="#2F2E41"/>
<path d="M108.841 390H0.569849C0.418716 390 0.273772 389.941 0.166905 389.836C0.0600371 389.732 0 389.589 0 389.441C0 389.293 0.0600371 389.151 0.166905 389.046C0.273772 388.941 0.418716 388.882 0.569849 388.882H108.841C108.992 388.882 109.137 388.941 109.244 389.046C109.351 389.151 109.411 389.293 109.411 389.441C109.411 389.589 109.351 389.732 109.244 389.836C109.137 389.941 108.992 390 108.841 390Z" fill="#CCCCCC"/>
</g>
<defs>
<clipPath id="clip0_109_3542">
<rect width="567" height="390" fill="white"/>
</clipPath>
</defs>
</svg>
