<svg width="567" height="390" viewBox="0 0 567 390" fill="none" xmlns="http://www.w3.org/2000/svg">
<g clip-path="url(#clip0_109_3299)">
<path d="M567 388.875C567 389.499 566.454 390 565.775 390H1.22545C0.545786 390 0 389.499 0 388.875C0 388.251 0.545786 387.75 1.22545 387.75H565.775C566.454 387.75 567 388.251 567 388.875Z" fill="#633E1C"/>
<path d="M449.665 80.1706H117.473C112.882 80.1706 109.146 76.7406 109.146 72.5247V49.0245C109.146 44.8086 112.882 41.3787 117.473 41.3787H449.665C454.256 41.3787 457.991 44.8086 457.991 49.0245V72.5247C457.991 76.7406 454.256 80.1706 449.665 80.1706Z" fill="white" stroke="#99CA99" stroke-width="2.05957" stroke-linecap="round" stroke-linejoin="round"/>
<path d="M449.665 225.039H117.473C112.882 225.039 109.146 221.609 109.146 217.393V193.893C109.146 189.677 112.882 186.247 117.473 186.247H449.665C454.256 186.247 457.991 189.677 457.991 193.893V217.393C457.991 221.609 454.256 225.039 449.665 225.039Z" fill="white" stroke="#99CA99" stroke-width="2.05957" stroke-linecap="round" stroke-linejoin="round"/>
<rect x="109.156" y="290.766" width="113.276" height="38.7688" rx="4.11914" fill="#228B22"/>
<path d="M143.489 307.462C143.434 306.951 143.204 306.553 142.799 306.268C142.397 305.983 141.874 305.841 141.231 305.841C140.778 305.841 140.39 305.909 140.066 306.046C139.742 306.182 139.495 306.368 139.323 306.602C139.151 306.836 139.064 307.103 139.06 307.403C139.06 307.653 139.116 307.869 139.229 308.053C139.347 308.236 139.504 308.392 139.703 308.521C139.902 308.646 140.123 308.751 140.365 308.837C140.606 308.923 140.85 308.995 141.096 309.053L142.219 309.334C142.672 309.439 143.107 309.582 143.524 309.761C143.945 309.941 144.322 310.167 144.653 310.44C144.989 310.713 145.254 311.043 145.449 311.429C145.644 311.815 145.742 312.267 145.742 312.786C145.742 313.488 145.562 314.107 145.203 314.641C144.845 315.172 144.326 315.587 143.647 315.887C142.972 316.184 142.155 316.332 141.195 316.332C140.263 316.332 139.454 316.188 138.767 315.899C138.085 315.61 137.55 315.189 137.164 314.635C136.782 314.081 136.575 313.406 136.544 312.611H138.679C138.711 313.028 138.839 313.375 139.066 313.652C139.292 313.929 139.586 314.136 139.949 314.272C140.316 314.409 140.725 314.477 141.178 314.477C141.65 314.477 142.063 314.407 142.418 314.267C142.777 314.122 143.058 313.923 143.261 313.67C143.464 313.412 143.567 313.112 143.571 312.769C143.567 312.457 143.475 312.199 143.296 311.996C143.117 311.79 142.865 311.618 142.541 311.481C142.221 311.341 141.847 311.216 141.418 311.107L140.054 310.756C139.068 310.502 138.287 310.118 137.714 309.603C137.145 309.085 136.86 308.396 136.86 307.538C136.86 306.832 137.051 306.214 137.433 305.683C137.819 305.153 138.344 304.741 139.007 304.449C139.67 304.152 140.421 304.004 141.26 304.004C142.11 304.004 142.855 304.152 143.495 304.449C144.139 304.741 144.644 305.149 145.01 305.671C145.377 306.19 145.566 306.787 145.578 307.462H143.489ZM147.583 316.151V307.163H149.701V316.151H147.583ZM148.648 305.888C148.313 305.888 148.024 305.777 147.782 305.554C147.54 305.328 147.42 305.057 147.42 304.741C147.42 304.421 147.54 304.15 147.782 303.928C148.024 303.702 148.313 303.588 148.648 303.588C148.988 303.588 149.276 303.702 149.514 303.928C149.756 304.15 149.877 304.421 149.877 304.741C149.877 305.057 149.756 305.328 149.514 305.554C149.276 305.777 148.988 305.888 148.648 305.888ZM155.788 319.708C155.027 319.708 154.374 319.605 153.828 319.398C153.282 319.195 152.843 318.922 152.511 318.579C152.18 318.236 151.95 317.855 151.821 317.438L153.728 316.976C153.814 317.151 153.939 317.325 154.103 317.496C154.267 317.672 154.487 317.816 154.764 317.929C155.045 318.046 155.398 318.105 155.823 318.105C156.424 318.105 156.921 317.959 157.315 317.666C157.709 317.377 157.906 316.902 157.906 316.238V314.536H157.801C157.692 314.754 157.532 314.978 157.321 315.209C157.114 315.439 156.839 315.632 156.496 315.788C156.157 315.944 155.729 316.022 155.215 316.022C154.524 316.022 153.898 315.86 153.336 315.536C152.779 315.209 152.334 314.721 152.002 314.074C151.675 313.422 151.511 312.607 151.511 311.628C151.511 310.641 151.675 309.808 152.002 309.129C152.334 308.447 152.781 307.93 153.342 307.579C153.904 307.224 154.53 307.046 155.22 307.046C155.747 307.046 156.18 307.136 156.519 307.316C156.863 307.491 157.136 307.704 157.339 307.953C157.541 308.199 157.695 308.431 157.801 308.65H157.918V307.163H160.007V316.297C160.007 317.065 159.823 317.701 159.457 318.204C159.09 318.708 158.589 319.084 157.953 319.334C157.317 319.583 156.595 319.708 155.788 319.708ZM155.806 314.36C156.254 314.36 156.636 314.251 156.952 314.033C157.268 313.814 157.508 313.5 157.672 313.091C157.836 312.681 157.918 312.189 157.918 311.616C157.918 311.05 157.836 310.555 157.672 310.13C157.512 309.705 157.274 309.375 156.958 309.141C156.646 308.903 156.262 308.784 155.806 308.784C155.334 308.784 154.94 308.907 154.624 309.153C154.308 309.399 154.07 309.736 153.91 310.165C153.75 310.59 153.67 311.074 153.67 311.616C153.67 312.166 153.75 312.648 153.91 313.061C154.074 313.471 154.314 313.791 154.629 314.021C154.949 314.247 155.341 314.36 155.806 314.36ZM164.295 310.885V316.151H162.177V307.163H164.202V308.691H164.307C164.514 308.187 164.843 307.788 165.296 307.491C165.752 307.195 166.316 307.046 166.987 307.046C167.607 307.046 168.147 307.179 168.608 307.444C169.072 307.71 169.431 308.094 169.684 308.597C169.942 309.1 170.068 309.711 170.065 310.428V316.151H167.946V310.756C167.946 310.155 167.79 309.685 167.478 309.346C167.17 309.006 166.743 308.837 166.197 308.837C165.826 308.837 165.497 308.919 165.208 309.083C164.923 309.242 164.699 309.475 164.535 309.779C164.375 310.083 164.295 310.452 164.295 310.885ZM182.033 312.371V307.163H184.151V316.151H182.097V314.553H182.004C181.801 315.056 181.467 315.468 181.003 315.788C180.543 316.108 179.975 316.268 179.3 316.268C178.711 316.268 178.191 316.137 177.738 315.876C177.29 315.61 176.939 315.226 176.685 314.723C176.431 314.216 176.305 313.603 176.305 312.886V307.163H178.423V312.558C178.423 313.128 178.579 313.58 178.891 313.916C179.203 314.251 179.613 314.419 180.12 314.419C180.432 314.419 180.734 314.343 181.027 314.191C181.319 314.038 181.559 313.812 181.746 313.512C181.937 313.208 182.033 312.827 182.033 312.371ZM186.329 319.521V307.163H188.412V308.65H188.535C188.644 308.431 188.798 308.199 188.997 307.953C189.196 307.704 189.465 307.491 189.805 307.316C190.144 307.136 190.577 307.046 191.103 307.046C191.798 307.046 192.424 307.224 192.982 307.579C193.543 307.93 193.988 308.451 194.316 309.141C194.647 309.828 194.813 310.67 194.813 311.669C194.813 312.656 194.651 313.494 194.327 314.185C194.004 314.875 193.563 315.402 193.005 315.764C192.447 316.127 191.815 316.309 191.109 316.309C190.594 316.309 190.167 316.223 189.828 316.051C189.489 315.88 189.216 315.673 189.009 315.431C188.806 315.185 188.648 314.953 188.535 314.735H188.447V319.521H186.329ZM188.406 311.657C188.406 312.238 188.488 312.747 188.652 313.184C188.82 313.621 189.06 313.962 189.372 314.208C189.688 314.45 190.07 314.571 190.518 314.571C190.986 314.571 191.378 314.446 191.694 314.196C192.01 313.943 192.248 313.598 192.408 313.161C192.572 312.72 192.654 312.219 192.654 311.657C192.654 311.099 192.574 310.604 192.414 310.171C192.254 309.738 192.016 309.399 191.7 309.153C191.384 308.907 190.99 308.784 190.518 308.784C190.066 308.784 189.682 308.903 189.366 309.141C189.05 309.379 188.81 309.713 188.646 310.142C188.486 310.571 188.406 311.076 188.406 311.657Z" fill="white"/>
<path d="M109.875 0.945557H182.732" stroke="#0E3A0E" stroke-width="2.05957" stroke-linecap="round" stroke-linejoin="round"/>
<path d="M109.875 145.814H245.214" stroke="#0E3A0E" stroke-width="2.05957" stroke-linecap="round" stroke-linejoin="round"/>
<path d="M409.474 347.256L398.018 353.981L408.407 368.903L419.863 362.178L409.474 347.256Z" fill="#F1A1A4"/>
<path d="M373.141 146.661L358.668 151.199L358.441 132.011L371.612 131.876L373.141 146.661Z" fill="#F1A1A4"/>
<path d="M360.129 137.309C368.122 137.309 374.602 131.359 374.602 124.02C374.602 116.681 368.122 110.731 360.129 110.731C352.136 110.731 345.656 116.681 345.656 124.02C345.656 131.359 352.136 137.309 360.129 137.309Z" fill="#F1A1A4"/>
<path d="M364.09 122.665C361.672 122.622 360.05 120.396 359.081 118.347C358.113 116.311 357.118 113.957 354.867 113.129C353.024 112.454 349.845 117.164 348.375 115.937C346.846 114.656 348.242 107.959 349.838 106.751C351.434 105.543 353.625 105.285 355.682 105.169C360.724 104.905 365.793 105.224 370.749 106.125C373.808 106.677 376.973 107.53 379.197 109.535C382.022 112.08 382.784 115.956 383.024 119.58C383.278 123.29 383.084 127.178 381.161 130.453C379.231 133.722 375.15 136.156 371.19 135.371C370.769 133.403 371.143 131.385 371.276 129.374C371.41 127.375 371.216 125.216 369.867 123.634C368.518 122.052 365.673 121.451 364.144 122.879" fill="#2F2E43"/>
<path d="M381.949 127.086C383.385 126.099 385.101 125.265 386.884 125.449C388.815 125.639 390.457 127.086 390.972 128.803C391.486 130.52 390.952 132.421 389.783 133.844C388.614 135.267 386.858 136.211 384.988 136.696C383.906 136.978 382.724 137.094 381.682 136.696C380.152 136.107 379.311 134.335 379.892 132.906" fill="#2F2E43"/>
<path d="M328.092 252.632C327.184 257.005 328.994 260.978 332.146 261.5C335.292 262.021 338.584 258.893 339.499 254.521C339.893 252.779 339.806 250.976 339.245 249.265L350.379 180.728L335.378 178.299L330.443 247.818C329.234 249.241 328.426 250.89 328.092 252.65L328.092 252.632Z" fill="#F1A1A4"/>
<path d="M358.399 142.393L348.18 142.497C340.967 143.571 339.051 147.134 337.494 153.683C335.11 163.673 332.065 176.987 332.706 177.171C333.728 177.477 351.206 184.812 360.055 182.997L358.405 142.393L358.399 142.393Z" fill="#6C63FF"/>
<path d="M370.95 360.229L357.354 360.369L357.569 378.078L371.166 377.939L370.95 360.229Z" fill="#F1A1A4"/>
<path d="M344.423 388.94C342.987 388.959 341.724 388.94 340.763 388.867C337.143 388.603 333.677 386.187 331.92 384.776C331.132 384.145 330.871 383.114 331.266 382.231C331.546 381.6 332.12 381.115 332.842 380.913L342.359 378.312L357.7 368.58L357.873 368.862C357.94 368.966 359.49 371.462 360.017 373.155C360.218 373.799 360.177 374.332 359.884 374.749C359.683 375.038 359.403 375.209 359.176 375.314C359.456 375.577 360.338 376.117 363.049 376.485C366.99 377.025 367.784 373.259 367.811 373.1L367.838 372.971L367.951 372.897C369.815 371.763 370.957 371.254 371.358 371.358C371.611 371.419 372.019 371.536 373.261 381.74C373.375 382.059 374.189 384.402 373.682 386.659C373.134 389.112 361.48 388.382 359.156 388.216C359.089 388.223 350.38 388.885 344.409 388.94H344.429L344.423 388.94Z" fill="#2F2E43"/>
<path d="M394.624 385.997C393.028 386.015 391.559 385.849 390.51 385.69C389.482 385.531 388.667 384.789 388.493 383.844C388.36 383.163 388.58 382.483 389.068 381.968L395.64 375.136L403.04 359.424L403.353 359.578C403.467 359.633 406.219 361 407.648 362.178C408.189 362.625 408.463 363.098 408.463 363.601C408.463 363.944 408.322 364.226 408.182 364.416C408.576 364.502 409.631 364.527 412.143 363.527C415.796 362.067 414.3 358.486 414.233 358.345L414.18 358.222L414.24 358.112C415.168 356.248 415.849 355.254 416.243 355.144C416.497 355.082 416.904 354.966 423.844 363.024C424.124 363.239 426.168 364.827 427.036 366.986C427.978 369.334 417.686 374.375 415.602 375.363C415.542 375.412 404.783 382.753 400.361 384.856C398.605 385.69 396.515 385.966 394.611 385.978L394.631 385.997L394.624 385.997Z" fill="#2F2E43"/>
<path d="M379.143 211.985L341.074 212.372L338.016 244.923L354.585 364.925L374.02 364.723L365.411 295.406L397.696 357.744L414.834 346.46L389.508 288.213C389.508 288.213 397.689 237.165 390.623 224.545C383.564 211.924 379.15 211.967 379.15 211.967V211.985L379.143 211.985Z" fill="#2F2E43"/>
<path d="M398.099 213.776L337.637 214.396L354.908 142.436L381.255 142.16L398.099 213.776Z" fill="#6C63FF"/>
<path d="M404.002 251.859C405.017 256.22 403.3 260.224 400.168 260.807C397.029 261.395 393.663 258.335 392.655 253.975C392.221 252.24 392.261 250.437 392.775 248.713L379.979 180.415L394.912 177.68L401.531 247.088C402.773 248.486 403.621 250.124 404.002 251.872V251.859Z" fill="#F1A1A4"/>
<path d="M371.044 142.264L381.262 142.16C388.495 143.092 390.499 146.612 392.222 153.131C394.847 163.072 398.206 176.312 397.578 176.515C396.557 176.834 379.272 184.524 370.383 182.893L371.057 142.264L371.044 142.264Z" fill="#6C63FF"/>
</g>
<defs>
<clipPath id="clip0_109_3299">
<rect width="567" height="390" fill="white"/>
</clipPath>
</defs>
</svg>
