<svg width="567" height="391" viewBox="0 0 567 391" fill="none" xmlns="http://www.w3.org/2000/svg">
<g clip-path="url(#clip0_109_3359)">
<path d="M537.606 313.372H343.277V345.413H537.606V313.372Z" fill="#6C63FF"/>
<path d="M457.544 266.912H428.432V390.27H457.544V266.912Z" fill="#6C63FF"/>
<path d="M0 389.213C0 389.813 0.438297 390.296 0.984094 390.296H566.016C566.562 390.296 567 389.813 567 389.213C567 388.612 566.562 388.13 566.016 388.13H0.984094C0.438297 388.13 0 388.612 0 389.213Z" fill="#583319"/>
<path d="M234.432 390.023H57.8165C50.7634 390.023 45.0254 383.707 45.0254 375.945V14.5777C45.0254 6.81514 50.7634 0.5 57.8165 0.5H234.432C241.485 0.5 247.223 6.81514 247.223 14.5777V375.945C247.223 383.707 241.485 390.023 234.432 390.023ZM57.8165 2.3202C51.6755 2.3202 46.6792 7.81901 46.6792 14.5777V375.945C46.6792 382.704 51.6755 388.202 57.8165 388.202H234.432C240.573 388.202 245.569 382.704 245.569 375.945V14.5777C245.569 7.81901 240.573 2.3202 234.432 2.3202H57.8165Z" fill="#3F3D56"/>
<path d="M551.174 184.255C550.476 182.959 547.455 184.347 546.9 183.171C546.347 181.999 549.153 180.214 550.756 176.136C551.046 175.401 552.868 170.766 551.519 169.336C548.962 166.625 537.263 177.811 533.169 174.151C532.27 173.348 531.642 171.744 528.923 169.14C527.841 168.104 527.187 167.636 526.554 167.81C525.655 168.057 525.584 169.381 524.621 171.982C523.176 175.884 522.322 175.649 521.48 178.762C520.855 181.073 520.998 182.416 520.263 182.678C519.222 183.048 518.265 180.597 516.946 180.817C515.6 181.041 514.787 183.895 514.53 186.031C514.048 190.041 515.386 192.687 516.127 195.47C516.933 198.493 517.412 203.092 515.551 209.601L497.129 266.725C501.196 255.003 512.972 222.871 517.92 210.931C519.348 207.484 520.925 203.988 524.164 202.608C527.282 201.279 531.564 202.073 537.023 200.625C537.66 200.456 539.43 199.961 539.652 198.815C539.836 197.869 538.796 197.34 538.956 196.453C539.17 195.264 541.216 195.249 543.731 193.877C545.505 192.909 546.609 191.758 547.559 190.768C547.846 190.47 552.104 185.98 551.174 184.255Z" fill="#4EA24E"/>
<path d="M478.699 214.327C477.92 214.33 477.667 216.362 476.983 216.323C476.3 216.284 476.314 214.253 474.958 212.21C474.713 211.842 473.172 209.52 472.145 209.836C470.199 210.435 471.812 219.982 468.998 221.138C468.381 221.391 467.484 221.268 465.538 221.985C464.764 222.271 464.367 222.489 464.262 222.882C464.113 223.438 464.682 223.858 465.565 225.129C466.888 227.035 466.536 227.429 467.682 228.782C468.532 229.786 469.172 230.097 469.077 230.569C468.942 231.238 467.573 231.048 467.29 231.824C467.002 232.616 468.04 233.878 468.918 234.634C470.568 236.051 472.134 236.092 473.588 236.494C475.169 236.931 477.358 238 479.724 240.883L499.883 267.316C495.829 261.737 484.898 246.105 481 239.987C479.875 238.221 478.771 236.36 479.09 234.213C479.398 232.145 480.987 230.061 481.916 226.695C482.025 226.301 482.315 225.203 481.868 224.752C481.499 224.379 480.963 224.789 480.614 224.447C480.145 223.988 480.729 222.878 480.843 221.124C480.923 219.887 480.728 218.958 480.561 218.159C480.511 217.918 479.736 214.323 478.699 214.327Z" fill="#4EA24E"/>
<path d="M494.245 218.168L493.775 213.555L493.99 213.206C494.983 211.589 495.488 210.01 495.495 208.511C495.496 208.273 495.485 208.034 495.475 207.791C495.435 206.829 495.384 205.633 495.951 204.239C496.269 203.462 497.161 201.662 498.503 201.885C498.864 201.941 499.137 202.123 499.345 202.337C499.375 202.284 499.406 202.23 499.44 202.172C499.857 201.471 500.188 201.17 500.507 200.88C500.752 200.658 501.005 200.428 501.402 199.885C501.576 199.647 501.711 199.437 501.826 199.261C502.173 198.729 502.626 198.094 503.425 198.105C504.279 198.15 504.726 198.927 505.023 199.442C505.552 200.359 505.792 201.021 505.951 201.46C506.008 201.62 506.074 201.8 506.108 201.856C506.383 202.301 508.62 201.885 509.463 201.733C511.356 201.386 512.994 201.085 513.669 202.399C514.153 203.339 513.794 204.582 512.569 206.192C512.188 206.693 511.782 207.074 511.422 207.373C511.72 207.569 511.987 207.869 512.096 208.342C512.351 209.46 511.477 210.58 509.501 211.676C509.011 211.95 508.35 212.315 507.424 212.491C506.988 212.573 506.595 212.593 506.259 212.604C506.252 212.818 506.207 213.05 506.088 213.288C505.741 213.99 505.019 214.324 503.93 214.244C502.732 214.175 501.746 213.923 500.875 213.702C500.116 213.511 499.461 213.348 498.947 213.386C497.994 213.471 497.259 214.311 496.397 215.4L494.245 218.168Z" fill="#4EA24E"/>
<path d="M496.423 190.705L492.488 192.374L492.126 192.235C490.453 191.588 488.937 191.45 487.618 191.824C487.408 191.883 487.202 191.954 486.991 192.027C486.155 192.314 485.117 192.671 483.748 192.421C482.984 192.28 481.176 191.787 481.032 190.302C480.989 189.903 481.08 189.566 481.215 189.291C481.161 189.272 481.106 189.253 481.046 189.232C480.324 188.965 479.976 188.689 479.64 188.423C479.382 188.219 479.117 188.008 478.538 187.723C478.285 187.598 478.066 187.507 477.883 187.43C477.327 187.196 476.654 186.874 476.461 186.02C476.284 185.1 476.853 184.426 477.23 183.98C477.903 183.184 478.423 182.761 478.768 182.481C478.895 182.379 479.037 182.263 479.077 182.213C479.399 181.807 478.465 179.531 478.118 178.672C477.333 176.745 476.653 175.077 477.637 174.026C478.34 173.272 479.524 173.339 481.249 174.234C481.787 174.513 482.224 174.849 482.578 175.157C482.674 174.789 482.871 174.428 483.259 174.193C484.176 173.638 485.383 174.284 486.847 176.11C487.212 176.563 487.701 177.173 488.09 178.114C488.273 178.558 488.391 178.97 488.486 179.325C488.675 179.279 488.89 179.268 489.13 179.334C489.834 179.525 490.311 180.21 490.517 181.389C490.76 182.682 490.789 183.796 490.816 184.778C490.841 185.636 490.864 186.374 491.027 186.912C491.344 187.905 492.268 188.474 493.444 189.116L496.423 190.705Z" fill="#4EA24E"/>
<path d="M494.245 177.116L493.775 172.503L493.99 172.154C494.983 170.537 495.488 168.958 495.495 167.459C495.496 167.221 495.485 166.982 495.475 166.739C495.435 165.777 495.384 164.581 495.951 163.187C496.269 162.41 497.161 160.61 498.503 160.833C498.864 160.889 499.137 161.071 499.345 161.285C499.375 161.232 499.406 161.178 499.44 161.12C499.857 160.419 500.188 160.118 500.507 159.828C500.752 159.606 501.005 159.376 501.402 158.833C501.576 158.595 501.711 158.385 501.826 158.209C502.173 157.677 502.626 157.042 503.425 157.053C504.279 157.098 504.726 157.875 505.023 158.39C505.552 159.307 505.792 159.969 505.951 160.408C506.008 160.568 506.074 160.748 506.108 160.804C506.383 161.249 508.62 160.833 509.463 160.681C511.356 160.334 512.994 160.033 513.669 161.347C514.153 162.287 513.794 163.53 512.569 165.14C512.188 165.641 511.782 166.022 511.422 166.321C511.72 166.517 511.987 166.817 512.096 167.29C512.351 168.408 511.477 169.528 509.501 170.624C509.011 170.898 508.35 171.263 507.424 171.439C506.988 171.521 506.595 171.541 506.259 171.552C506.252 171.766 506.207 171.998 506.088 172.236C505.741 172.938 505.019 173.272 503.93 173.192C502.732 173.123 501.746 172.871 500.875 172.65C500.116 172.459 499.461 172.296 498.947 172.334C497.994 172.419 497.259 173.259 496.397 174.348L494.245 177.116Z" fill="#4EA24E"/>
<path d="M498.534 266.65L497.655 266.044L496.632 266.173C496.615 266.068 496.56 265.828 496.476 265.451C496.017 263.389 494.62 257.113 493.454 247.228C492.641 240.329 492.18 233.235 492.085 226.141C491.99 219.037 492.296 213.658 492.541 209.335C492.726 206.074 492.95 202.97 493.171 199.945C493.758 191.865 494.311 184.232 493.9 175.782C493.809 173.896 493.617 169.969 491.533 165.791C490.324 163.368 488.658 161.216 486.582 159.399L487.873 157.613C490.165 159.621 492.007 162.005 493.35 164.695C495.661 169.328 495.87 173.606 495.97 175.662C496.389 184.261 495.829 191.967 495.236 200.125C495.018 203.139 494.793 206.23 494.609 209.477C494.366 213.76 494.063 219.092 494.158 226.106C494.251 233.115 494.706 240.121 495.508 246.935C496.66 256.694 498.037 262.877 498.489 264.908C498.73 265.993 498.781 266.22 498.534 266.65Z" fill="#4EA24E"/>
<path d="M482.781 163.022C482.696 163.022 482.61 163.02 482.523 163.013C480.758 162.909 479.124 161.746 477.665 159.559C476.981 158.53 476.631 157.356 475.933 155.015C475.824 154.655 475.298 152.824 474.978 150.305C474.769 148.659 474.795 147.971 475.092 147.363C475.421 146.686 475.953 146.214 476.552 145.895C476.526 145.677 476.547 145.452 476.633 145.222C476.986 144.271 477.925 144.396 478.433 144.456C478.69 144.492 479.011 144.539 479.357 144.519C479.901 144.49 480.194 144.312 480.637 144.044C481.061 143.788 481.588 143.47 482.37 143.294C483.912 142.94 485.204 143.421 485.63 143.579C487.871 144.401 488.976 146.318 490.255 148.539C490.51 148.984 491.385 150.606 491.963 152.828C492.38 154.432 492.321 155.145 492.196 155.675C491.941 156.764 491.339 157.387 489.81 158.764C488.213 160.205 487.412 160.926 486.724 161.365C485.122 162.383 484.116 163.022 482.781 163.022Z" fill="#4EA24E"/>
<path d="M247.714 161.138H44.5312V219.22H247.714V161.138Z" fill="#BADBBA"/>
<path d="M173.829 1.41016H121.055V389.113H173.829V1.41016Z" fill="#BADBBA"/>
<path opacity="0.2" d="M175.781 214.848C176.155 213.248 176.378 211.585 176.432 209.872L242.438 143.713L185.705 113.22L160.701 186.603C158.992 186.111 157.208 185.823 155.36 185.823C154.378 185.823 153.42 185.923 152.473 186.065L127.653 113.22L70.9199 143.713L134.332 207.271C134.291 207.862 134.25 208.454 134.25 209.056C134.25 211.06 134.504 212.993 134.938 214.848C96.0681 228.217 80.1555 268.591 80.1555 268.591L128.972 312.153C126.061 280.11 143.841 247.304 153.453 232.184C154.082 232.246 154.716 232.289 155.36 232.289C156.003 232.289 156.637 232.246 157.266 232.184C166.878 247.304 184.658 280.11 181.747 312.153L230.564 268.591C230.564 268.591 214.651 228.217 175.781 214.848Z" fill="black"/>
<path d="M182.948 296.456C182.379 296.456 181.805 296.32 181.263 296.041C179.893 295.337 179.027 293.869 179.004 292.211C178.603 264.119 164.049 236.547 155.409 222.613C154.832 221.683 153.835 221.127 152.743 221.127H152.738C151.605 221.127 150.609 221.683 150.032 222.613C141.392 236.547 126.837 264.119 126.437 292.211C126.413 293.868 125.547 295.337 124.177 296.041C122.793 296.754 121.196 296.538 120.011 295.482L79.4358 259.273C77.9875 257.98 77.5623 255.715 78.4251 253.887C82.5267 245.194 98.3171 215.895 129.306 203.847C130.689 203.309 131.529 201.794 131.348 200.161C131.248 199.249 131.197 198.334 131.197 197.44C131.199 196.373 130.829 195.404 130.181 194.756L71.8477 136.287C70.8802 135.317 70.4135 133.887 70.5984 132.462C70.7837 131.036 71.5965 129.807 72.7723 129.175L121.34 103.071C122.336 102.535 123.499 102.488 124.53 102.938C125.561 103.39 126.376 104.305 126.765 105.448L149.285 171.539C149.749 172.903 150.941 173.794 152.294 173.757C153.315 173.731 154.35 173.796 155.381 173.943C156.837 174.157 158.211 173.254 158.721 171.755L181.314 105.448C181.704 104.305 182.518 103.39 183.549 102.938C184.58 102.488 185.743 102.536 186.739 103.071L235.306 129.175C236.482 129.807 237.296 131.036 237.48 132.463C237.666 133.887 237.199 135.317 236.231 136.287L175.117 197.544C174.547 198.114 174.193 198.894 174.118 199.737C174.102 199.919 174.085 200.102 174.065 200.283C173.897 201.817 174.764 203.314 176.124 203.843C207.12 215.889 222.913 245.193 227.015 253.887C227.878 255.715 227.453 257.98 226.005 259.273L185.429 295.482C184.708 296.125 183.834 296.456 182.948 296.456Z" fill="#228B22"/>
<path d="M525.642 390.379H355.243C348.19 390.379 342.451 384.063 342.451 376.301V280.881C342.451 273.118 348.19 266.803 355.243 266.803H525.642C532.695 266.803 538.433 273.118 538.433 280.881V376.301C538.433 384.063 532.695 390.379 525.642 390.379ZM355.243 268.623C349.101 268.623 344.105 274.122 344.105 280.881V376.301C344.105 383.06 349.101 388.559 355.243 388.559H525.642C531.783 388.559 536.779 383.06 536.779 376.301V280.881C536.779 274.122 531.783 268.623 525.642 268.623H355.243Z" fill="#3F3D56"/>
<path opacity="0.2" d="M434.759 349.327C435.561 349.554 436.394 349.689 437.253 349.722L470.413 389.796L485.698 355.352L448.916 340.172C449.162 339.134 449.307 338.051 449.307 336.929C449.307 336.333 449.257 335.751 449.185 335.176L485.698 320.107L470.413 285.663L438.556 324.162C438.26 324.137 437.964 324.112 437.662 324.112C436.657 324.112 435.688 324.267 434.759 324.53C428.057 300.931 407.821 291.27 407.821 291.27L385.986 320.908C402.047 319.14 418.491 329.935 426.07 335.771C426.038 336.153 426.016 336.538 426.016 336.929C426.016 337.319 426.038 337.704 426.07 338.086C418.491 343.922 402.047 354.717 385.986 352.949L407.821 382.587C407.821 382.587 428.057 372.926 434.759 349.327Z" fill="black"/>
<path d="M471.61 384.286C470.951 384.286 470.317 383.982 469.866 383.437L439.161 346.33C438.908 346.024 438.539 345.83 438.123 345.784L437.99 345.769C437.24 345.677 436.556 346.124 436.321 346.857C430.26 365.768 415.505 375.393 411.128 377.892C410.141 378.457 408.916 378.173 408.214 377.217L390.064 352.58C389.488 351.799 389.372 350.747 389.759 349.833C390.142 348.933 390.937 348.365 391.835 348.35C405.867 348.112 419.654 339.297 426.624 334.064C427.043 333.748 427.293 333.204 427.292 332.609C427.293 331.987 427.043 331.443 426.624 331.128C419.655 325.895 405.87 317.08 391.834 316.842C390.936 316.827 390.141 316.258 389.759 315.358C389.372 314.444 389.488 313.392 390.064 312.612L408.214 287.974C408.917 287.021 410.142 286.737 411.127 287.299C415.504 289.799 430.256 299.422 436.318 318.327C436.553 319.06 437.224 319.517 437.9 319.427C438.635 319.325 439.367 319.301 440.075 319.359L469.866 283.357C470.393 282.72 471.172 282.411 471.946 282.535C472.721 282.658 473.389 283.193 473.732 283.967L486.818 313.456C487.11 314.113 487.136 314.879 486.89 315.558C486.645 316.236 486.147 316.772 485.526 317.028L452.397 330.701C451.788 330.952 451.39 331.608 451.406 332.332L451.409 332.596C451.409 333.163 451.373 333.74 451.303 334.31C451.212 335.044 451.628 335.775 452.291 336.049L485.526 349.766C486.147 350.023 486.645 350.559 486.89 351.238C487.136 351.917 487.109 352.682 486.818 353.339L473.732 382.828C473.389 383.602 472.721 384.137 471.946 384.259C471.834 384.277 471.722 384.286 471.61 384.286Z" fill="#FF6363"/>
<path d="M317.286 156.754H290.637V147.096C290.637 130.909 302.578 117.767 317.286 117.767L317.286 156.754Z" fill="#2F2E41"/>
<path d="M311.379 138.726L315.961 161.407L289.111 156.501L300.053 135.05L311.379 138.726Z" fill="#FFB6B6"/>
<path opacity="0.1" d="M311.379 138.726L315.961 161.407L289.111 156.501L300.053 135.05L311.379 138.726Z" fill="black"/>
<path d="M311.379 187.178H285.637V229.108H311.379V187.178Z" fill="#FFB6B6"/>
<path d="M328.111 263.389L322.448 296.819C322.448 296.819 326.052 320.051 315.24 343.849L308.032 368.213L297.221 366.513C297.221 366.513 303.914 348.382 303.914 340.449C303.914 332.516 305.458 301.919 305.458 301.919L304.686 267.005L328.111 263.389Z" fill="#FFB6B6"/>
<path d="M295.677 365.947C295.677 365.947 308.033 360.847 309.062 368.213L308.548 371.613C308.548 371.613 313.181 386.912 306.488 388.045C299.795 389.178 293.617 390.878 293.102 387.478C292.588 384.079 292.596 379.835 293.879 376.857C295.162 373.88 295.677 365.947 295.677 365.947Z" fill="#2F2E41"/>
<path d="M289.138 258.203L286.13 292.048C286.13 292.048 276.798 313.26 281.17 339.428L281.936 365.038L292.751 366.714C292.751 366.714 290.904 347.249 292.908 339.629C294.913 332.01 301.161 302.147 301.161 302.147L310.725 268.846L289.138 258.203Z" fill="#FFB6B6"/>
<path d="M294.376 366.643C294.376 366.643 283.796 357.962 280.946 364.723L280.581 368.146C280.581 368.146 272.411 385.065 278.554 388.203C284.696 391.34 290.054 391.221 291.408 388.113C292.761 385.005 293.826 380.926 293.346 377.673C292.866 374.42 294.376 366.643 294.376 366.643Z" fill="#2F2E41"/>
<path d="M321.418 209.56L343.556 261.122C343.556 261.122 299.022 285.77 272.766 285.77L285.803 209.56L321.418 209.56Z" fill="#2F2E41"/>
<path d="M301.596 149.215L314.467 151.481L313.437 187.178L327.853 218.909L309.319 229.108C309.319 229.108 294.903 199.077 292.329 180.379C289.755 161.68 291.299 148.082 291.299 148.082L301.596 149.215Z" fill="#E6E6E6"/>
<path d="M291.815 150.348L278.944 152.615L279.974 188.312L276.885 221.175L284.092 230.241C284.092 230.241 298.508 200.211 301.082 181.512C303.656 162.814 302.112 149.215 302.112 149.215L291.815 150.348Z" fill="#E6E6E6"/>
<path d="M311.637 152.331L314.469 151.481C314.469 151.481 324.508 150.065 326.053 154.598C327.597 159.131 327.082 185.762 327.082 185.762C327.082 185.762 329.739 218.447 319.401 218.82C309.063 219.192 311.122 191.995 311.122 191.995L311.637 152.331Z" fill="#E6E6E6"/>
<path d="M306.887 144.951C314.246 144.951 320.212 138.385 320.212 130.286C320.212 122.187 314.246 115.621 306.887 115.621C299.528 115.621 293.562 122.187 293.562 130.286C293.562 138.385 299.528 144.951 306.887 144.951Z" fill="#FFB6B6"/>
<path d="M302.718 150.468C305.577 149.67 308.817 153.03 309.958 157.975C310.438 159.944 310.482 162.01 310.088 164.001L311.316 169.623L311.407 169.617L321.095 194.746C323.348 200.589 323.11 207.297 320.236 212.8C318.527 216.074 316.284 218.274 313.649 216.028C309.278 212.3 306.422 190.955 305.119 178.694L302.104 166.231C300.894 164.687 300.038 162.847 299.607 160.864C298.467 155.921 299.86 151.267 302.718 150.468Z" fill="#FFB6B6"/>
<path d="M290.271 152.331L287.439 151.481C287.439 151.481 277.4 150.065 275.855 154.598C274.311 159.131 274.826 185.762 274.826 185.762C274.826 185.762 272.169 218.447 282.507 218.82C292.845 219.192 290.786 191.995 290.786 191.995L290.271 152.331Z" fill="#E6E6E6"/>
<path d="M299.189 150.468C296.33 149.67 293.089 153.03 291.949 157.975C291.469 159.944 291.424 162.01 291.819 164.001L290.591 169.623L290.5 169.617L280.812 194.746C278.559 200.589 278.797 207.297 281.67 212.8C283.38 216.074 285.623 218.274 288.258 216.028C292.629 212.3 295.484 190.955 296.788 178.694L299.802 166.231C301.012 164.687 301.869 162.847 302.3 160.864C303.44 155.921 302.047 151.267 299.189 150.468Z" fill="#FFB6B6"/>
<path d="M281.376 142.15C282.054 139.882 283.392 137.896 283.991 135.601C284.785 132.554 286.478 139.314 286.643 136.149C286.957 130.133 295.299 114.659 300.061 111.687C304.823 108.714 307.559 109.611 312.411 112.402C312.411 112.402 314.766 112.567 317.698 114.16C320.63 115.753 323.269 118.305 324.41 121.678C325.314 124.351 325.214 127.287 325.516 130.12C326.357 138.013 330.377 145.52 329.514 153.41C329.245 155.872 328.395 158.417 326.566 159.865C324.737 161.313 321.783 161.156 320.579 159.06C320.168 158.345 319.994 157.496 319.642 156.744C319.29 155.992 318.654 155.291 317.886 155.314C316.731 155.349 316.143 157.055 316.598 158.224C317.054 159.393 318.124 160.098 319.129 160.726C316.736 161.911 313.766 161.542 311.673 159.799C309.58 158.056 308.45 155.012 308.835 152.155C309.378 148.129 314.708 148.962 315.335 144.95C315.792 142.03 317.398 137.144 316.96 134.22C316.523 131.296 314.423 134.837 316.635 133.147C314.202 134.438 308.997 125.606 306.449 124.616C303.901 123.627 301.741 121.485 300.583 118.799C297.881 123.11 295.504 121.939 294.536 127.067C293.568 132.194 294.463 143.844 298.448 146.707C296.853 147.904 295.582 149.617 294.834 151.575C294.41 152.685 294.135 153.899 293.432 154.821C292.088 156.581 289.607 156.688 287.629 155.948C285.177 155.03 283.081 153.015 281.925 150.464C280.769 147.913 280.567 144.857 281.376 142.15Z" fill="#2F2E41"/>
</g>
<defs>
<clipPath id="clip0_109_3359">
<rect width="567" height="390" fill="white" transform="translate(0 0.5)"/>
</clipPath>
</defs>
</svg>
