<svg width="567" height="390" viewBox="0 0 567 390" fill="none" xmlns="http://www.w3.org/2000/svg">
<g clip-path="url(#clip0_109_3797)">
<path d="M535.921 390L536.566 388.881C527.908 384.494 517.133 379.034 511.505 370.073C505.957 361.24 505.833 349.245 511.18 338.769C515.731 329.854 524.091 321.866 535.356 315.67C537.578 314.448 539.91 313.29 542.166 312.169C547.618 309.462 553.256 306.662 557.905 302.689C564.308 297.218 569.152 288.037 565.541 279.859C564.354 277.248 562.409 275.002 559.928 273.376C557.447 271.749 554.528 270.807 551.504 270.656L551.428 271.926C554.198 272.064 556.872 272.926 559.145 274.416C561.419 275.906 563.202 277.963 564.291 280.353C567.646 287.953 563.042 296.577 556.99 301.75C552.468 305.613 546.908 308.375 541.53 311.045C539.261 312.172 536.916 313.337 534.668 314.573C523.169 320.898 514.624 329.075 509.956 338.22C504.416 349.073 504.561 361.525 510.335 370.718C516.155 379.984 527.114 385.538 535.921 390Z" fill="#683D16"/>
<path d="M542.9 277.361C549.461 277.361 554.78 274.94 554.78 271.954C554.78 268.968 549.461 266.547 542.9 266.547C536.338 266.547 531.02 268.968 531.02 271.954C531.02 274.94 536.338 277.361 542.9 277.361Z" fill="#228B22"/>
<path d="M533.396 312.983C539.957 312.983 545.276 310.563 545.276 307.576C545.276 304.59 539.957 302.169 533.396 302.169C526.835 302.169 521.516 304.59 521.516 307.576C521.516 310.563 526.835 312.983 533.396 312.983Z" fill="#228B22"/>
<path d="M555.118 318.708C561.68 318.708 566.999 316.288 566.999 313.301C566.999 310.315 561.68 307.895 555.118 307.895C548.557 307.895 543.238 310.315 543.238 313.301C543.238 316.288 548.557 318.708 555.118 318.708Z" fill="#228B22"/>
<path d="M521.175 348.606C527.736 348.606 533.055 346.185 533.055 343.199C533.055 340.213 527.736 337.792 521.175 337.792C514.614 337.792 509.295 340.213 509.295 343.199C509.295 346.185 514.614 348.606 521.175 348.606Z" fill="#228B22"/>
<path d="M497.415 348.606C503.977 348.606 509.296 346.185 509.296 343.199C509.296 340.213 503.977 337.792 497.415 337.792C490.854 337.792 485.535 340.213 485.535 343.199C485.535 346.185 490.854 348.606 497.415 348.606Z" fill="#228B22"/>
<path d="M93.1981 279.561H51.0439C49.9024 279.56 48.8081 279.135 48.0009 278.379C47.1937 277.622 46.7396 276.597 46.7383 275.527V145.38C46.7396 144.31 47.1937 143.285 48.0009 142.529C48.8081 141.772 49.9024 141.347 51.0439 141.346H93.1981C94.3396 141.347 95.4339 141.772 96.2411 142.529C97.0483 143.285 97.5024 144.31 97.5037 145.38V275.527C97.5024 276.597 97.0483 277.622 96.2411 278.379C95.4339 279.135 94.3396 279.56 93.1981 279.561Z" fill="#228B22"/>
<path d="M170.071 279.562H127.917C126.775 279.56 125.681 279.135 124.874 278.379C124.067 277.622 123.613 276.597 123.611 275.527V93.7344C123.613 92.6648 124.067 91.6393 124.874 90.8831C125.681 90.1268 126.775 89.7014 127.917 89.7002H170.071C171.213 89.7014 172.307 90.1268 173.114 90.8831C173.921 91.6393 174.375 92.6648 174.377 93.7344V275.527C174.375 276.597 173.921 277.622 173.114 278.379C172.307 279.135 171.213 279.56 170.071 279.562Z" fill="#228B22"/>
<path d="M246.946 279.561H204.792C203.65 279.56 202.556 279.135 201.749 278.379C200.942 277.622 200.488 276.597 200.486 275.527V145.38C200.488 144.31 200.942 143.285 201.749 142.529C202.556 141.772 203.65 141.347 204.792 141.346H246.946C248.088 141.347 249.182 141.772 249.989 142.529C250.796 143.285 251.25 144.31 251.252 145.38V275.527C251.25 276.597 250.796 277.622 249.989 278.379C249.182 279.135 248.088 279.56 246.946 279.561Z" fill="#228B22"/>
<path d="M323.819 279.561H281.665C280.55 279.584 279.47 279.191 278.663 278.469C277.856 277.747 277.387 276.755 277.359 275.71V73.1652C277.387 72.12 277.856 71.1278 278.663 70.4059C279.47 69.684 280.55 69.2913 281.665 69.3138H323.819C324.935 69.2913 326.014 69.684 326.821 70.4059C327.628 71.1278 328.097 72.12 328.125 73.1652V275.71C328.097 276.755 327.628 277.747 326.821 278.469C326.014 279.191 324.935 279.584 323.819 279.561Z" fill="#228B22"/>
<path d="M400.692 279.561H358.538C357.397 279.56 356.302 279.135 355.495 278.379C354.688 277.622 354.234 276.597 354.232 275.527V36.6523C354.234 35.5827 354.688 34.5573 355.495 33.801C356.302 33.0448 357.397 32.6194 358.538 32.6182H400.692C401.834 32.6194 402.928 33.0448 403.735 33.801C404.542 34.5573 404.996 35.5827 404.998 36.6523V275.527C404.996 276.597 404.542 277.622 403.735 278.379C402.928 279.135 401.834 279.56 400.692 279.561Z" fill="#228B22"/>
<path d="M72.1226 125.037C76.9289 125.037 80.8252 121.386 80.8252 116.882C80.8252 112.378 76.9289 108.727 72.1226 108.727C67.3162 108.727 63.4199 112.378 63.4199 116.882C63.4199 121.386 67.3162 125.037 72.1226 125.037Z" fill="#3F3D56"/>
<path d="M148.994 72.0319C153.8 72.0319 157.696 68.381 157.696 63.8773C157.696 59.3737 153.8 55.7228 148.994 55.7228C144.187 55.7228 140.291 59.3737 140.291 63.8773C140.291 68.381 144.187 72.0319 148.994 72.0319Z" fill="#3F3D56"/>
<path d="M225.869 125.037C230.675 125.037 234.571 121.386 234.571 116.882C234.571 112.378 230.675 108.727 225.869 108.727C221.062 108.727 217.166 112.378 217.166 116.882C217.166 121.386 221.062 125.037 225.869 125.037Z" fill="#3F3D56"/>
<path d="M302.742 46.2091C307.548 46.2091 311.444 42.5582 311.444 38.0546C311.444 33.5509 307.548 29.9 302.742 29.9C297.935 29.9 294.039 33.5509 294.039 38.0546C294.039 42.5582 297.935 46.2091 302.742 46.2091Z" fill="#3F3D56"/>
<path d="M379.615 16.3091C384.421 16.3091 388.317 12.6582 388.317 8.15456C388.317 3.65092 384.421 0 379.615 0C374.808 0 370.912 3.65092 370.912 8.15456C370.912 12.6582 374.808 16.3091 379.615 16.3091Z" fill="#3F3D56"/>
<path d="M450.09 281.076H0.678869C0.498821 281.076 0.326148 281.009 0.198836 280.89C0.0715229 280.77 0 280.609 0 280.44C0 280.271 0.0715229 280.109 0.198836 279.99C0.326148 279.871 0.498821 279.804 0.678869 279.804H450.09C450.27 279.804 450.443 279.871 450.57 279.99C450.697 280.109 450.769 280.271 450.769 280.44C450.769 280.609 450.697 280.77 450.57 280.89C450.443 281.009 450.27 281.076 450.09 281.076Z" fill="#1E1E1E"/>
<path d="M562.103 389.851H342.15C341.97 389.851 341.797 389.784 341.67 389.665C341.542 389.546 341.471 389.384 341.471 389.215C341.471 389.047 341.542 388.885 341.67 388.765C341.797 388.646 341.97 388.579 342.15 388.579H562.103C562.283 388.579 562.456 388.646 562.583 388.765C562.71 388.885 562.782 389.047 562.782 389.215C562.782 389.384 562.71 389.546 562.583 389.665C562.456 389.784 562.283 389.851 562.103 389.851Z" fill="#683D16"/>
<path d="M420.852 270.737C421.411 270.217 421.84 269.589 422.111 268.896C422.383 268.204 422.488 267.464 422.421 266.73C422.354 265.995 422.116 265.283 421.724 264.644C421.332 264.004 420.794 263.453 420.15 263.03L422.819 251.777L415.917 248.59L412.386 264.53C411.698 265.591 411.45 266.852 411.688 268.073C411.926 269.295 412.633 270.392 413.677 271.157C414.721 271.922 416.027 272.302 417.35 272.224C418.672 272.147 419.919 271.618 420.852 270.737Z" fill="#FFB7B7"/>
<path d="M496.333 270.983C496.847 270.425 497.223 269.767 497.437 269.057C497.65 268.347 497.694 267.602 497.567 266.875C497.439 266.147 497.143 265.454 496.699 264.845C496.255 264.236 495.674 263.726 494.997 263.35L496.729 251.938L489.584 249.26L487.38 265.409C486.782 266.517 486.638 267.792 486.976 268.992C487.314 270.193 488.11 271.235 489.214 271.923C490.318 272.61 491.652 272.894 492.964 272.72C494.276 272.547 495.475 271.929 496.333 270.983Z" fill="#FFB7B7"/>
<path d="M442.527 382.99L435.489 382.989L432.141 357.551L442.529 357.552L442.527 382.99Z" fill="#FFB7B7"/>
<path d="M444.324 389.383L421.629 389.382V389.113C421.629 386.918 422.56 384.813 424.216 383.26C425.873 381.708 428.12 380.836 430.462 380.836L444.324 380.836L444.324 389.383Z" fill="#2F2E41"/>
<path d="M466.066 382.99L459.028 382.989L455.68 357.551L466.068 357.552L466.066 382.99Z" fill="#FFB7B7"/>
<path d="M467.861 389.383L445.166 389.382V389.113C445.166 386.918 446.097 384.813 447.753 383.26C449.41 381.708 451.657 380.836 453.999 380.836L467.861 380.836L467.861 389.383Z" fill="#2F2E41"/>
<path d="M480.238 168.971L487.828 166.405C487.828 166.405 491.049 167.046 491.049 175.231C491.049 183.417 499.604 259.76 499.604 259.76L484.632 263.453L476.17 191.023L480.238 168.971Z" fill="#2F2E41"/>
<path d="M429.522 168.971L421.933 166.405C421.933 166.405 418.711 167.046 418.711 175.231C418.711 183.417 410.156 259.76 410.156 259.76L425.128 263.453L433.591 191.023L429.522 168.971Z" fill="#2F2E41"/>
<path d="M429.619 256.04L427.545 313.387L432.138 376.822L443.972 377.079L445.694 317.904L455.454 288.317L454.47 375.523L467.87 375.373L476.169 315.376C476.169 315.376 487.129 265.723 481.052 256.04L453.061 247.318L429.619 256.04Z" fill="#2F2E41"/>
<path d="M429.847 249.13L429.172 262.925C429.172 262.925 438.616 267.329 455.216 264.646C471.816 261.964 482.85 263.732 482.85 263.732L481.576 246.147L429.847 249.13Z" fill="#E5E5E5"/>
<path d="M421.631 166.608L443.459 157.646L444.761 152.952L465.996 153.528L466.913 158.324L487.828 166.405L478.613 196.427L479.558 217.548L491.049 256.04C491.049 256.04 481.357 263.753 458.072 260.435L454.054 252.849L451.596 260.871C451.596 260.871 431.178 267.909 425.519 258.747L429.619 192.562L421.631 166.608Z" fill="#2F2E41"/>
<path d="M455.185 148.542C462.972 148.542 469.285 142.626 469.285 135.329C469.285 128.032 462.972 122.116 455.185 122.116C447.397 122.116 441.084 128.032 441.084 135.329C441.084 142.626 447.397 148.542 455.185 148.542Z" fill="#FFB7B7"/>
<path d="M471.939 130.209C471.687 129.134 471.202 128.119 470.514 127.226C470.24 124.758 469.361 122.382 467.946 120.284C467.392 119.301 466.605 118.45 465.645 117.796C464.547 117.203 463.293 116.91 462.026 116.95C461.796 116.947 461.382 117.012 461.01 117.028C460.772 116.959 460.532 116.897 460.291 116.839C460.15 116.546 459.872 115.692 459.794 115.75L458.744 116.532C458.3 116.459 457.853 116.403 457.405 116.358C457.242 115.922 457.079 115.486 456.916 115.05C456.651 115.44 456.419 115.849 456.222 116.273C455.776 116.252 455.33 116.245 454.883 116.251L453.99 115.447C453.938 115.672 453.817 115.876 453.642 116.037C453.467 116.197 453.246 116.307 453.005 116.351C452.595 116.391 452.186 116.442 451.778 116.504C451.745 116.504 451.711 116.504 451.678 116.503C449.48 116.452 447.114 116.359 445.276 117.49C444.416 118.044 443.715 118.789 443.238 119.658C443.013 119.801 442.787 119.944 442.568 120.096C441.831 120.567 441.192 121.161 440.682 121.847C440.312 122.44 440.031 123.077 439.848 123.742C439.146 125.742 438.821 127.842 438.887 129.946C438.962 132.065 439.816 134.095 441.303 135.693C442.246 136.642 443.445 137.343 444.389 138.292C446.333 140.244 446.697 142.967 448.36 145.032C450.119 147.217 453.329 148.655 456.148 149.067C457.843 149.307 459.572 149.23 461.235 148.841C462.898 148.452 464.463 147.76 465.839 146.802C466.5 146.371 467.061 145.82 467.489 145.181C468.468 143.596 468.053 141.602 468.416 139.802C469.097 136.429 472.533 133.597 471.939 130.209Z" fill="#2F2E41"/>
<path d="M71.6582 117.392L70.8477 116.372L148.996 61.855L225.621 115.409L303.294 36.3889L303.433 36.3354L378.815 7.18298L379.333 8.35916L304.09 37.4575L225.79 117.115L148.996 63.4415L71.6582 117.392Z" fill="#3F3D56"/>
</g>
<defs>
<clipPath id="clip0_109_3797">
<rect width="567" height="390" fill="white"/>
</clipPath>
</defs>
</svg>
