<svg width="567" height="390" viewBox="0 0 567 390" fill="none" xmlns="http://www.w3.org/2000/svg">
<g clip-path="url(#clip0_109_3220)">
<path d="M192.994 273.964C217.486 273.964 237.34 255.63 237.34 233.014C237.34 210.397 217.486 192.063 192.994 192.063C168.503 192.063 148.648 210.397 148.648 233.014C148.648 255.63 168.503 273.964 192.994 273.964Z" fill="#4EA24E"/>
<path opacity="0.2" d="M160.25 205.662C156.114 214.597 155.553 224.599 158.667 233.881C161.782 243.163 168.369 251.12 177.252 256.33C186.134 261.54 196.734 263.663 207.156 262.321C217.578 260.979 227.144 256.258 234.144 249.002C231.617 254.461 227.835 259.348 223.06 263.323C218.285 267.298 212.631 270.268 206.49 272.025C200.349 273.782 193.868 274.285 187.496 273.5C181.123 272.714 175.012 270.659 169.585 267.476C164.158 264.293 159.546 260.058 156.067 255.066C152.588 250.073 150.327 244.442 149.439 238.562C148.551 232.682 149.058 226.694 150.925 221.013C152.792 215.332 155.974 210.094 160.25 205.662Z" fill="black"/>
<path d="M193.116 233.013H193.237L195.43 349.114H190.801L193.116 233.013Z" fill="#633E1C"/>
<path d="M270.258 216.163C299.757 216.163 323.672 194.08 323.672 166.839C323.672 139.598 299.757 117.515 270.258 117.515C240.758 117.515 216.844 139.598 216.844 166.839C216.844 194.08 240.758 216.163 270.258 216.163Z" fill="#4EA24E"/>
<path opacity="0.2" d="M309.697 133.894C314.679 144.657 315.355 156.704 311.604 167.884C307.852 179.064 299.918 188.648 289.219 194.924C278.52 201.199 265.753 203.757 253.2 202.14C240.646 200.523 229.125 194.837 220.693 186.098C223.737 192.673 228.292 198.559 234.044 203.347C239.795 208.135 246.605 211.711 254.001 213.828C261.398 215.944 269.205 216.551 276.88 215.605C284.556 214.658 291.917 212.183 298.453 208.349C304.99 204.515 310.546 199.414 314.736 193.401C318.926 187.387 321.65 180.605 322.719 173.522C323.789 166.44 323.178 159.228 320.93 152.385C318.681 145.543 314.848 139.233 309.697 133.894Z" fill="black"/>
<path d="M270.11 166.839H269.964L267.322 306.682H272.899L270.11 166.839Z" fill="#633E1C"/>
<path d="M171.099 120.637L178.351 115.281C172.717 114.707 170.402 117.544 169.455 119.79C165.053 118.102 160.262 120.314 160.262 120.314L174.772 125.178C174.04 123.373 172.766 121.798 171.099 120.637Z" fill="#1E1E1E"/>
<path d="M152.82 74.4162L160.072 69.0599C154.438 68.4859 152.123 71.3233 151.176 73.5691C146.774 71.8814 141.982 74.0932 141.982 74.0932L156.493 78.9578C155.761 77.1522 154.487 75.5768 152.82 74.4162Z" fill="#1E1E1E"/>
<path d="M255.556 104.3L262.808 98.9432C257.174 98.3692 254.859 101.207 253.912 103.452C249.51 101.765 244.719 103.977 244.719 103.977L259.229 108.841C258.497 107.036 257.223 105.46 255.556 104.3Z" fill="#1E1E1E"/>
<path d="M248.391 306.468C248.391 306.468 248.668 301.098 254.357 301.722L248.391 306.468Z" fill="#1F7E1F"/>
<path d="M287.033 306.467C287.033 306.467 287.311 301.098 292.999 301.722L287.033 306.467Z" fill="#1F7E1F"/>
<path d="M275.781 306.467C275.781 306.467 276.059 301.098 281.747 301.722L275.781 306.467Z" fill="#1F7E1F"/>
<path d="M238.039 306.467C238.039 306.467 237.761 301.098 232.072 301.722L238.039 306.467Z" fill="#1F7E1F"/>
<path d="M262.15 306.839C262.15 306.839 261.872 301.469 256.184 302.093L262.15 306.839Z" fill="#1F7E1F"/>
<path d="M173.65 348.645C173.65 348.645 173.928 343.275 179.617 343.899L173.65 348.645Z" fill="#1F7E1F"/>
<path d="M212.293 348.645C212.293 348.645 212.57 343.275 218.259 343.899L212.293 348.645Z" fill="#1F7E1F"/>
<path d="M201.043 348.645C201.043 348.645 201.32 343.275 207.009 343.899L201.043 348.645Z" fill="#1F7E1F"/>
<path d="M163.3 348.645C163.3 348.645 163.023 343.275 157.334 343.899L163.3 348.645Z" fill="#1F7E1F"/>
<path d="M187.41 349.016C187.41 349.016 187.132 343.646 181.443 344.27L187.41 349.016Z" fill="#1F7E1F"/>
<path d="M466.871 96.9465H392.508V103.066H466.871V96.9465Z" fill="#3F3D56"/>
<path d="M466.871 119.488H392.508V125.607H466.871V119.488Z" fill="#3F3D56"/>
<path d="M466.871 139.682H392.508V145.801H466.871V139.682Z" fill="#3F3D56"/>
<path d="M364.537 100.006C364.537 98.4272 365.044 96.8837 365.994 95.5708C366.944 94.2579 368.294 93.2347 369.874 92.6304C371.454 92.0262 373.192 91.8681 374.869 92.1761C376.546 92.4842 378.087 93.2445 379.296 94.361C380.505 95.4775 381.328 96.9001 381.662 98.4487C381.995 99.9974 381.824 101.603 381.17 103.061C380.516 104.52 379.407 105.767 377.986 106.644C376.564 107.521 374.892 107.99 373.183 107.99C370.89 107.987 368.693 107.145 367.072 105.649C365.451 104.152 364.54 102.123 364.537 100.006Z" fill="#0E3A0E"/>
<path d="M364.537 122.548C364.537 120.969 365.044 119.425 365.994 118.112C366.944 116.799 368.294 115.776 369.874 115.172C371.454 114.568 373.192 114.41 374.869 114.718C376.546 115.026 378.087 115.786 379.296 116.903C380.505 118.019 381.328 119.442 381.662 120.99C381.995 122.539 381.824 124.144 381.17 125.603C380.516 127.062 379.407 128.308 377.986 129.186C376.564 130.063 374.892 130.531 373.183 130.531C370.89 130.529 368.693 129.687 367.072 128.19C365.451 126.694 364.54 124.664 364.537 122.548Z" fill="#0E3A0E"/>
<path d="M364.537 142.741C364.537 141.162 365.044 139.619 365.994 138.306C366.944 136.993 368.294 135.97 369.874 135.366C371.454 134.761 373.192 134.603 374.869 134.911C376.546 135.219 378.087 135.98 379.296 137.096C380.505 138.213 381.328 139.635 381.662 141.184C381.995 142.732 381.824 144.338 381.17 145.796C380.516 147.255 379.407 148.502 377.986 149.379C376.564 150.257 374.892 150.725 373.183 150.725C370.89 150.722 368.693 149.881 367.072 148.384C365.451 146.887 364.54 144.858 364.537 142.741Z" fill="#0E3A0E"/>
<path d="M291.663 153.749L290.57 152.966L318.562 119.683H355.171V120.961H319.24L291.663 153.749Z" fill="#3F3D56"/>
<path d="M74.3627 169.798H0V175.917H74.3627V169.798Z" fill="#3F3D56"/>
<path d="M74.3627 192.34H0V198.459H74.3627V192.34Z" fill="#3F3D56"/>
<path d="M74.3627 212.533H0V218.652H74.3627V212.533Z" fill="#3F3D56"/>
<path d="M93.6884 180.841C91.9785 180.841 90.307 180.373 88.8853 179.496C87.4635 178.618 86.3554 177.371 85.7011 175.913C85.0467 174.454 84.8755 172.849 85.2091 171.3C85.5427 169.751 86.3661 168.329 87.5752 167.212C88.7843 166.096 90.3247 165.335 92.0018 165.027C93.6788 164.719 95.4171 164.877 96.9969 165.482C98.5766 166.086 99.9269 167.109 100.877 168.422C101.827 169.735 102.334 171.279 102.334 172.858C102.334 173.906 102.11 174.944 101.676 175.913C101.241 176.881 100.604 177.761 99.8016 178.503C98.9988 179.244 98.0458 179.832 96.9969 180.233C95.948 180.635 94.8238 180.841 93.6884 180.841Z" fill="#0E3A0E"/>
<path d="M93.6884 203.383C91.9785 203.383 90.307 202.914 88.8852 202.037C87.4635 201.16 86.3554 199.913 85.7011 198.454C85.0467 196.995 84.8755 195.39 85.2091 193.842C85.5427 192.293 86.3661 190.87 87.5752 189.754C88.7843 188.637 90.3247 187.877 92.0018 187.569C93.6788 187.261 95.4171 187.419 96.9969 188.023C98.5766 188.628 99.9268 189.651 100.877 190.964C101.827 192.277 102.334 193.82 102.334 195.399C102.334 196.447 102.11 197.486 101.676 198.454C101.241 199.423 100.604 200.303 99.8016 201.044C98.9988 201.786 98.0457 202.374 96.9968 202.775C95.9479 203.176 94.8237 203.383 93.6884 203.383Z" fill="#0E3A0E"/>
<path d="M93.6884 223.576C91.9785 223.576 90.307 223.108 88.8852 222.231C87.4635 221.353 86.3554 220.107 85.701 218.648C85.0467 217.189 84.8755 215.584 85.2091 214.035C85.5427 212.486 86.3661 211.064 87.5752 209.947C88.7842 208.831 90.3247 208.071 92.0018 207.763C93.6788 207.454 95.4171 207.613 96.9969 208.217C98.5766 208.821 99.9268 209.844 100.877 211.157C101.827 212.47 102.334 214.014 102.334 215.593C102.334 216.641 102.11 217.679 101.676 218.648C101.241 219.616 100.604 220.496 99.8016 221.238C98.9988 221.979 98.0457 222.567 96.9968 222.968C95.9479 223.37 94.8237 223.576 93.6884 223.576Z" fill="#0E3A0E"/>
<path d="M175.208 226.601L147.63 193.813H111.699V192.535H148.308L148.515 192.782L176.3 225.818L175.208 226.601Z" fill="#3F3D56"/>
<path d="M332.615 4.92383H258.252V11.0429H332.615V4.92383Z" fill="#3F3D56"/>
<path d="M332.615 27.4656H258.252V33.5846H332.615V27.4656Z" fill="#3F3D56"/>
<path d="M332.615 47.6589H258.252V53.778H332.615V47.6589Z" fill="#3F3D56"/>
<path d="M230.283 7.98338C230.283 6.40439 230.79 4.86086 231.74 3.54798C232.69 2.23511 234.04 1.21184 235.62 0.607594C237.2 0.00334234 238.938 -0.154765 240.615 0.153281C242.292 0.461327 243.833 1.22168 245.042 2.3382C246.251 3.45471 247.074 4.87723 247.408 6.42588C247.742 7.97453 247.57 9.57974 246.916 11.0385C246.262 12.4973 245.154 13.7442 243.732 14.6214C242.31 15.4986 240.639 15.9669 238.929 15.9669C236.636 15.9645 234.439 15.1226 232.818 13.6259C231.197 12.1293 230.286 10.1 230.283 7.98338Z" fill="#0E3A0E"/>
<path d="M230.283 30.525C230.283 28.946 230.79 27.4025 231.74 26.0896C232.69 24.7767 234.04 23.7535 235.62 23.1492C237.2 22.545 238.938 22.3869 240.615 22.6949C242.292 23.0029 243.833 23.7633 245.042 24.8798C246.251 25.9963 247.074 27.4188 247.408 28.9675C247.742 30.5161 247.57 32.1213 246.916 33.5801C246.262 35.0389 245.154 36.2858 243.732 37.163C242.31 38.0403 240.639 38.5085 238.929 38.5085C236.637 38.5061 234.439 37.6643 232.818 36.1676C231.197 34.6709 230.286 32.6416 230.283 30.525Z" fill="#0E3A0E"/>
<path d="M230.283 50.7186C230.283 49.1396 230.79 47.5961 231.74 46.2832C232.69 44.9703 234.04 43.9471 235.62 43.3428C237.2 42.7386 238.938 42.5805 240.615 42.8885C242.292 43.1966 243.833 43.9569 245.042 45.0734C246.251 46.1899 247.074 47.6125 247.408 49.1611C247.742 50.7097 247.57 52.315 246.916 53.7738C246.262 55.2325 245.154 56.4794 243.732 57.3566C242.31 58.2339 240.639 58.7021 238.929 58.7021C236.637 58.6997 234.439 57.8579 232.818 56.3612C231.197 54.8645 230.286 52.8352 230.283 50.7186Z" fill="#0E3A0E"/>
<path d="M157.409 61.7267L156.316 60.9432L184.308 27.6604H220.918V28.9385H184.986L157.409 61.7267Z" fill="#3F3D56"/>
<path d="M524.168 385.549H519.498L517.275 368.912H524.169L524.168 385.549Z" fill="#FFB7B7"/>
<path d="M525.358 389.731L510.297 389.73V389.554C510.297 388.118 510.915 386.741 512.014 385.726C513.113 384.711 514.604 384.141 516.159 384.141L525.359 384.141L525.358 389.731Z" fill="#2F2E41"/>
<path d="M504.1 385.549H499.429L497.207 368.912H504.101L504.1 385.549Z" fill="#FFB7B7"/>
<path d="M505.29 389.731L490.229 389.73V389.554C490.229 388.118 490.846 386.741 491.946 385.726C493.045 384.711 494.536 384.141 496.091 384.141L505.29 384.141L505.29 389.731Z" fill="#2F2E41"/>
<path d="M493.466 276.395L487.137 285.689L497.761 379.474L508.864 380.095L511.199 299.094L515.092 342.391L513.554 380.095L524.985 380.607L531.777 325.904L536.891 282.64L526.857 274.013L493.466 276.395Z" fill="#2F2E41"/>
<path d="M523.049 205.315L505.748 205.954L489.717 278.987C489.717 278.987 515.775 290.927 526.332 280.074L532.677 275.781L523.049 205.315Z" fill="#6C63FF"/>
<path d="M523.05 205.315L538.274 213.509L532.65 247.812L537.582 282.788L521.563 280.377C521.563 280.377 518.283 247.812 520.412 237.587C522.54 227.363 523.05 205.315 523.05 205.315Z" fill="#3F3D56"/>
<path d="M505.749 205.954L487.532 214.589L488.92 252.579L479.518 281.361C479.518 281.361 498.265 286.901 501.488 278.221C504.711 269.54 505.749 205.954 505.749 205.954Z" fill="#3F3D56"/>
<path d="M530.352 291.444C530.959 291.17 531.494 290.777 531.919 290.291C532.345 289.806 532.649 289.241 532.812 288.635C532.975 288.029 532.992 287.398 532.862 286.785C532.732 286.173 532.459 285.594 532.06 285.09L537.558 276.758L532.891 272.438L525.305 284.304C524.432 284.979 523.857 285.925 523.69 286.964C523.522 288.004 523.773 289.064 524.395 289.944C525.017 290.824 525.967 291.463 527.065 291.739C528.162 292.015 529.332 291.91 530.352 291.444Z" fill="#FFB7B7"/>
<path d="M530.373 218.182L537.631 212.87C537.631 212.87 544.494 218.057 544.325 223.029C544.156 228.001 546.211 254.488 546.211 254.488L534.884 285.97L526.449 279.738L536.33 255.161L528.544 234.189L530.373 218.182Z" fill="#3F3D56"/>
<path d="M483.449 292.927C482.889 292.577 482.419 292.118 482.072 291.582C481.725 291.047 481.51 290.447 481.441 289.826C481.372 289.205 481.451 288.578 481.673 287.989C481.895 287.399 482.254 286.862 482.726 286.414L478.553 277.451L483.833 273.781L489.533 286.515C490.295 287.296 490.72 288.308 490.727 289.359C490.735 290.409 490.325 291.426 489.575 292.217C488.825 293.007 487.787 293.516 486.658 293.647C485.529 293.778 484.387 293.521 483.449 292.927Z" fill="#FFB7B7"/>
<path d="M494.598 220.392L488.222 214.19C488.222 214.19 480.635 218.433 480.045 223.377C479.454 228.322 473.381 254.278 473.381 254.278L479.794 286.919L489.096 281.846L483.061 256.229L493.967 236.478L494.598 220.392Z" fill="#3F3D56"/>
<path d="M514.952 200.542C521.478 200.542 526.768 195.656 526.768 189.63C526.768 183.603 521.478 178.718 514.952 178.718C508.425 178.718 503.135 183.603 503.135 189.63C503.135 195.656 508.425 200.542 514.952 200.542Z" fill="#FFB7B7"/>
<path d="M512.094 179.94C510.9 179.746 509.719 180.247 508.614 180.705C507.508 181.162 506.272 181.596 505.113 181.268C504.579 181.081 504.101 180.78 503.719 180.388C503.336 179.996 503.061 179.526 502.915 179.016C502.633 177.995 502.533 176.938 502.616 175.887L503.875 176.559L503.015 175.225L515.278 173.973C518.988 173.595 523.149 173.331 526.034 175.517C527.505 176.75 528.576 178.336 529.128 180.099C531.576 187.019 534.355 197.102 521.791 199.159C520.039 198.712 522.896 192.759 522.867 191.082C522.838 189.404 521.838 187.518 520.042 187.26L518.727 188.949C519.569 187.868 516.582 184.359 515.839 183.674C515.171 183.151 514.568 182.561 514.041 181.914C513.448 181.075 513.441 180.16 512.094 179.94Z" fill="#2F2E41"/>
<path d="M566.308 390H442.434C442.251 390 442.075 389.932 441.945 389.813C441.815 389.693 441.742 389.53 441.742 389.361C441.742 389.191 441.815 389.029 441.945 388.909C442.075 388.789 442.251 388.722 442.434 388.722H566.308C566.491 388.722 566.667 388.789 566.797 388.909C566.927 389.029 567 389.191 567 389.361C567 389.53 566.927 389.693 566.797 389.813C566.667 389.932 566.491 390 566.308 390Z" fill="#633E1C"/>
</g>
<defs>
<clipPath id="clip0_109_3220">
<rect width="567" height="390" fill="white"/>
</clipPath>
</defs>
</svg>
